<svg width="378" height="337" viewBox="0 0 378 337" fill="none" xmlns="http://www.w3.org/2000/svg">
<g style="mix-blend-mode:luminosity">
<path d="M189.092 336.68C293.157 336.68 377.518 289.572 377.518 231.461C377.518 173.35 293.157 126.242 189.092 126.242C85.0269 126.242 0.665527 173.35 0.665527 231.461C0.665527 289.572 85.0269 336.68 189.092 336.68Z" fill="#F5F5F5"/>
<path d="M75.608 271.319C97.7353 271.319 115.673 260.962 115.673 248.186C115.673 235.41 97.7353 225.053 75.608 225.053C53.4807 225.053 35.543 235.41 35.543 248.186C35.543 260.962 53.4807 271.319 75.608 271.319Z" fill="#E0E0E0"/>
<path d="M88.7276 224.679C88.6503 219.383 91.2172 187.684 91.2172 187.684L75.437 195.199C76.9833 214.404 78.29 223.566 78.2436 225.12C78.1653 225.37 78.1262 225.631 78.1276 225.893C77.9652 229.388 81.9934 231.498 85.1556 234.004C87.8196 236.21 90.6646 238.189 93.6603 239.918C95.9798 241.163 100.742 241.526 101.392 240.111C97.588 237.019 93.181 233.671 90.2043 230.23C88.8049 228.545 88.7895 228.359 88.7276 224.679Z" fill="#9E6767"/>
<path d="M107.957 244.215C108.158 244.215 108.359 246.364 107.184 247.207C105.869 248.173 102.065 249.681 97.1788 248.815C92.2925 247.949 89.7256 246.326 87.8082 244.686C85.8907 243.047 83.2697 240.658 81.0662 240.048C79.0251 239.499 76.8216 238.501 76.1876 237.852C75.5536 237.202 75.7856 234.512 75.7856 234.512L107.957 244.215Z" fill="black"/>
<path d="M93.398 231.59C93.0964 231.265 92.8026 230.941 92.5243 230.616C91.7924 229.735 91.2147 228.736 90.8156 227.662C90.6081 227.211 90.4248 226.749 90.2667 226.278C90.0966 225.629 90.0038 224.949 89.8724 224.291C89.8157 223.969 89.7276 223.653 89.6095 223.348C89.537 223.145 89.3869 222.978 89.192 222.884C89.072 222.861 88.9486 222.861 88.8286 222.884C86.9867 222.945 85.1744 223.365 83.4938 224.121C83.0531 224.322 82.7207 224.562 82.6665 225.057C82.7076 225.629 82.6259 226.204 82.4269 226.742C82.3847 226.842 82.3149 226.928 82.2258 226.99C82.1607 227.026 82.0876 227.044 82.0132 227.044C81.9389 227.044 81.8657 227.026 81.8006 226.99C81.6677 226.916 81.5559 226.81 81.4759 226.68C80.9888 225.992 80.8728 225.072 80.3161 224.431C80.0072 224.094 79.5977 223.866 79.1487 223.781C78.9322 223.735 78.1977 223.719 78.1513 223.41L78.0121 221.98C78.0121 221.98 77.5714 221.771 77.2854 222.621C77.084 223.505 76.9701 224.406 76.9452 225.312C76.8524 226.294 76.721 227.059 76.5509 228.033C76.3421 229.193 76.1488 230.353 75.9633 231.513C75.6927 232.625 75.5859 233.771 75.6463 234.915C75.7027 235.419 75.9486 235.883 76.3344 236.214C76.9184 236.8 77.605 237.274 78.3601 237.613C79.3806 238.108 80.4476 238.51 81.4991 238.95C83.9669 240.129 86.2467 241.666 88.2642 243.512C91.2281 245.802 94.7478 247.261 98.4622 247.741C103.349 248.066 106.874 246.69 107.933 245.066C108.103 243.937 108.25 242.747 107.779 241.912C106.232 239.159 102.498 238.046 99.5446 236.384C98.2604 235.627 97.0283 234.785 95.8566 233.863C94.9761 233.174 94.1537 232.414 93.398 231.59Z" fill="#37474F"/>
<path d="M90.568 238.734C90.6553 238.786 90.7574 238.807 90.8583 238.795C90.9591 238.782 91.0529 238.736 91.1247 238.664C93.2586 236.569 97.3099 235.324 98.6398 235.804C98.6398 235.804 98.4774 235.154 97.0934 234.76C97.0934 234.76 93.5446 234.42 90.0345 237.752C89.9843 237.801 89.9461 237.86 89.9227 237.926C89.8993 237.992 89.8914 238.063 89.8996 238.132C89.9079 238.202 89.932 238.269 89.9701 238.327C90.0083 238.386 90.0594 238.435 90.1196 238.471L90.568 238.734Z" fill="#FAFAFA"/>
<path d="M95.2993 233.385C93.8303 232.829 90.2737 234.391 88.5187 236.099C88.448 236.174 88.352 236.221 88.2492 236.229C88.1464 236.238 88.0441 236.208 87.962 236.146L87.5213 235.813C87.4729 235.774 87.4338 235.725 87.407 235.668C87.3801 235.612 87.3662 235.551 87.3662 235.488C87.3662 235.426 87.3801 235.365 87.407 235.309C87.4338 235.252 87.4729 235.203 87.5213 235.164C88.5109 234.251 91.3871 231.924 94.1241 232.303C94.0931 232.303 95.191 232.844 95.2993 233.385Z" fill="#FAFAFA"/>
<path d="M92.524 230.617C91.4647 230.377 88.6582 230.965 86.3387 232.789C86.2935 232.824 86.2413 232.849 86.1856 232.862C86.13 232.875 86.0722 232.875 86.0163 232.863C85.9605 232.852 85.9078 232.828 85.862 232.794C85.8162 232.76 85.7784 232.716 85.7511 232.666L85.5501 232.264C85.5074 232.185 85.4941 232.093 85.5125 232.006C85.5309 231.918 85.5798 231.839 85.6506 231.784C86.4238 231.15 89.1685 229.225 91.7354 229.565C92.0866 229.84 92.3587 230.203 92.524 230.617Z" fill="#FAFAFA"/>
<path d="M101.354 237.281C95.2533 238.572 92.9029 242.477 91.7896 245.685C93.8771 246.747 96.1361 247.43 98.4619 247.703C103.348 248.028 106.874 246.652 107.933 245.028C108.103 243.899 108.25 242.709 107.778 241.874C106.549 239.663 103.882 238.511 101.354 237.281Z" fill="#FAFAFA"/>
<path d="M63.7776 202.179L49.0876 200.1C49.3196 207.831 48.817 218.145 48.4768 226.828C48.065 228.72 47.9891 230.669 48.2526 232.588C48.5542 234.258 45.9332 246.172 46.7063 249.651C47.8197 254.878 55.9842 253.247 56.3244 250.092C56.6646 246.938 57.6388 240.621 58.7057 232.309C59.5639 225.196 63.7081 202.674 63.7776 202.179Z" fill="#9E6767"/>
<path d="M58.1957 252.074L53.3016 241.149C51.9331 240.376 50.3095 238.829 48.7864 239.68C48.2495 239.95 47.7526 240.294 47.3096 240.7C46.1731 241.829 46.0649 243.461 45.7633 244.93C45.4618 246.399 44.3794 247.744 44.1474 249.267C43.7067 252.135 43.5907 253.952 44.3562 256.589C45.1216 259.225 47.6885 260.717 50.2476 261.467C52.3893 262.094 55.1108 261.522 56.3015 259.697C57.7782 257.401 58.0952 255.158 58.1957 252.074Z" fill="black"/>
<path d="M58.134 251.974C56.1624 249.314 46.6371 248.363 43.9697 250.752C43.9697 250.404 44.0393 250.025 44.0857 249.631C44.3606 247.028 44.9126 244.462 45.7325 241.977C46.2466 240.424 46.642 238.835 46.9155 237.222C47.1242 235.56 47.3716 232.111 47.4799 230.936C47.5107 229.776 47.6192 228.619 47.8046 227.472C47.8896 227.132 47.9902 226.699 48.4386 226.831C48.4386 226.831 48.4386 227.403 48.369 227.751C48.2994 228.099 48.3149 228.462 48.2917 228.764C48.2298 229.475 48.2298 230.117 48.2221 230.836C48.2023 231.11 48.2338 231.385 48.3149 231.648C48.3374 231.707 48.3779 231.759 48.4308 231.794C48.6319 231.879 48.6164 231.408 48.6319 231.315L48.9489 229.545C48.9544 229.451 48.9896 229.362 49.0494 229.289C49.102 229.238 49.1653 229.198 49.2349 229.173C50.7271 228.594 51.8327 228.099 53.3713 228.354C54.2283 228.48 55.072 228.685 55.8918 228.965C56.4872 229.173 57.5464 229.506 57.8788 230.086C58.0016 230.368 58.0287 230.683 57.9562 230.983C57.8711 231.756 57.7629 232.676 57.6469 233.573C57.5155 234.655 58.8917 231.029 59.1236 228.98C59.6958 229.112 59.6262 229.753 59.1236 232.181C58.5237 235.231 58.131 238.317 57.9484 241.42C57.8093 243.895 57.8093 246.376 57.9484 248.85C58.0567 249.948 58.1185 250.969 58.134 251.974Z" fill="#37474F"/>
<path d="M47.1936 245.97C50.2383 245.597 53.328 245.917 56.2318 246.906C56.271 246.922 56.3138 246.929 56.3563 246.925C56.3988 246.921 56.4396 246.906 56.4749 246.883C56.5103 246.859 56.5392 246.826 56.5588 246.789C56.5785 246.751 56.5883 246.708 56.5874 246.666V245.823C56.5871 245.776 56.573 245.729 56.547 245.689C56.5209 245.65 56.484 245.618 56.4405 245.599C53.5375 244.364 50.3234 244.059 47.24 244.725C47.1872 244.736 47.1389 244.762 47.1016 244.801C47.0642 244.839 47.0397 244.889 47.0312 244.942L46.9152 245.715C46.9138 245.751 46.9203 245.787 46.9341 245.82C46.9479 245.853 46.9688 245.883 46.9953 245.907C47.0218 245.931 47.0532 245.949 47.0875 245.96C47.1217 245.971 47.1579 245.975 47.1936 245.97Z" fill="#FAFAFA"/>
<path d="M48.0827 241.781C50.8223 241.391 53.6164 241.769 56.1545 242.871C56.1914 242.888 56.2318 242.895 56.2721 242.892C56.3125 242.889 56.3515 242.877 56.3859 242.855C56.4202 242.834 56.4488 242.805 56.4691 242.77C56.4894 242.735 56.5008 242.695 56.5024 242.655V241.882C56.501 241.836 56.4863 241.792 56.4602 241.755C56.4341 241.718 56.3977 241.69 56.3555 241.673C55.6287 241.348 53.0618 239.817 48.1213 240.645C48.0705 240.65 48.0228 240.672 47.9852 240.707C47.9476 240.742 47.9222 240.788 47.9126 240.838L47.8044 241.518C47.8031 241.554 47.8096 241.59 47.8233 241.624C47.8371 241.657 47.8578 241.688 47.8842 241.713C47.9105 241.737 47.9418 241.756 47.976 241.768C48.0103 241.78 48.0466 241.784 48.0827 241.781Z" fill="#FAFAFA"/>
<path d="M48.8404 237.953C51.4034 237.556 54.0263 237.908 56.3942 238.965C56.4298 238.981 56.4687 238.987 56.5074 238.984C56.5461 238.98 56.5833 238.967 56.6157 238.946C56.648 238.924 56.6744 238.895 56.6924 238.861C56.7105 238.826 56.7196 238.788 56.7189 238.749V237.976C56.7159 237.933 56.7014 237.892 56.6769 237.856C56.6524 237.821 56.6189 237.793 56.5798 237.775C55.9071 237.458 53.4871 235.989 48.8482 236.824C48.7996 236.831 48.7548 236.854 48.72 236.889C48.6853 236.924 48.6625 236.968 48.6549 237.017L48.5544 237.674C48.5471 237.713 48.5496 237.753 48.5615 237.791C48.5735 237.828 48.5945 237.862 48.6228 237.89C48.6511 237.918 48.6858 237.938 48.7238 237.949C48.7617 237.96 48.8018 237.961 48.8404 237.953Z" fill="#FAFAFA"/>
<path d="M43.9929 250.781C43.9078 253.371 44.132 255.134 45.4928 257.067C47.2247 259.541 53.6264 261.853 56.3866 258.188C57.7551 256.364 58.0721 254.23 58.1958 252.072C56.3789 249.335 46.6371 248.354 43.9929 250.781Z" fill="#FAFAFA"/>
<path d="M52.6136 118.292C50.5492 134.954 50.8044 155.009 50.1549 165.749C49.5055 176.488 48.3071 183.786 48.1756 191.959C47.9514 205.775 48.3767 220.813 48.3767 220.813C48.3767 220.813 54.1908 224.13 60.7472 221.949C60.7472 221.949 66.2212 193.992 67.6206 185.379C69.623 173.109 72.2595 151.298 72.2595 151.298L74.6718 174.493C73.6006 180.243 73.3585 186.117 73.9527 191.935C74.5558 197.348 77.1304 217.148 77.1304 217.148C79.1584 217.949 81.3375 218.294 83.5137 218.161C85.6899 218.027 87.8103 217.418 89.7252 216.375C89.7252 216.375 93.1193 178.49 93.3977 173.488C93.8074 166.444 94.2559 113.955 94.1708 107.947L52.6136 118.292Z" fill="#455A64"/>
<path d="M72.2441 151.268L74.092 138.897C74.092 138.897 82.4266 136.578 85.96 130.965C83.6405 137.869 75.9553 140.931 75.9553 140.931L73.3188 152.938L74.6641 174.463L72.2441 151.268Z" fill="#37474F"/>
<path d="M84.1272 62.3965C90.7067 63.4325 92.8639 65.6979 95.1988 71.2723C99.1728 80.7745 103.031 90.1451 103.031 90.1451L121.208 97.4128L119.607 109.01C119.607 109.01 105.644 106.15 97.4332 103.977C95.1137 103.351 94.271 101.866 93.1267 100.181C92.1835 98.8045 83.1685 82.0192 83.1685 82.0192L84.1272 62.3965Z" fill="#263238"/>
<path d="M93.0412 77.5055C91.3402 68.7379 90.5516 64.8489 84.8534 62.8929C79.1552 60.9368 69.3903 61.0141 69.3903 61.0141C66.4523 61.7872 57.2826 63.983 53.2854 65.1737C49.2881 66.3643 50.1154 75.6577 51.0432 81.5878C52.1666 88.3604 52.8792 95.1947 53.1771 102.053C53.0225 111.501 52.172 117.88 51.8009 123.284C60.3056 128.696 85.1936 127.738 94.2164 122.302C94.4251 117.81 94.4947 105.958 94.4174 100.144C94.2705 89.2344 93.7525 81.2012 93.0412 77.5055Z" fill="#37474F"/>
<path d="M56.0302 64.1445C52.6361 64.7321 48.345 65.6908 46.4199 68.7835C45.0282 71.0256 37.6445 88.3676 37.8301 95.4342C40.6599 103.452 55.2803 88.7387 55.2803 88.7387C56.9658 79.1747 59.0378 69.2242 56.0302 64.1445Z" fill="#263238"/>
<path d="M87.4669 26.8776C85.3149 24.6056 82.4864 23.0897 79.4029 22.5557C76.3423 21.9709 73.1868 22.1193 70.1946 22.9887C66.7308 24.0092 63.0119 26.9859 62.7877 31.2305C61.1332 31.6094 59.9193 33.3026 59.5095 35.3051C58.8755 38.3977 59.8574 41.7223 60.9863 44.5211C60.9863 44.5211 64.7206 51.2476 65.4165 52.647C66.1896 54.2784 66.8004 55.6391 66.8004 55.6391L66.5917 50.5286C68.6202 50.4857 70.6325 50.1551 72.5682 49.5466C74.4887 48.855 76.3503 48.0095 78.1349 47.0184C81.6676 45.0086 85.0087 42.6794 88.1164 40.06C89.8869 38.6142 90.2116 36.9674 90.2967 34.7329C90.3751 33.3008 90.1651 31.8675 89.679 30.5181C89.1929 29.1687 88.4406 27.9307 87.4669 26.8776Z" fill="#263238"/>
<path d="M70.9758 32.2749C70.4971 34.4315 69.327 36.3726 67.6435 37.803C68.0146 39.8463 68.0355 41.9379 67.7053 43.9882C67.6281 44.428 67.4652 44.8483 67.226 45.2253C67.1012 45.4106 66.9378 45.5667 66.7469 45.6828C66.556 45.799 66.3423 45.8723 66.1203 45.8979C65.525 45.8979 65.2853 45.5655 65.1075 45.1248C64.8484 44.5241 64.5514 43.9405 64.2184 43.3774C64.0741 43.1304 63.9001 42.9019 63.7004 42.6971C62.8035 41.8466 60.1206 40.7874 58.8372 43.6326C57.5538 46.4778 59.8346 50.5369 61.9917 51.1709C65.7183 52.2688 66.561 49.7328 66.561 49.7328L67.0945 63.0852C69.097 65.2346 76.8131 68.3814 78.9857 70.9251C80.0063 69.2318 82.2716 66.4098 80.2459 62.6523V58.2839C81.7265 58.3583 83.2107 58.2597 84.6684 57.9901C86.609 57.6422 88.4878 55.8949 89.4001 52.9723C91.1707 47.2664 90.2893 39.4034 89.6166 35.8623C89.2687 33.7133 88.3075 31.7105 86.8487 30.0946C86.7798 30.0193 86.6944 29.961 86.5993 29.924C86.5041 29.8871 86.4017 29.8725 86.3001 29.8815C86.1984 29.8905 86.1002 29.9227 86.013 29.9757C85.9258 30.0288 85.8519 30.1012 85.7972 30.1874C85.3063 30.8379 84.686 31.3798 83.9755 31.7789C83.265 32.1781 82.4795 32.4259 81.6686 32.5068C79.3491 32.8161 75.5838 32.213 72.7463 31.293C72.5658 31.2306 72.3742 31.207 72.184 31.2236C71.9937 31.2401 71.8091 31.2966 71.6421 31.3892C71.4751 31.4818 71.3295 31.6085 71.2147 31.7611C71.0999 31.9137 71.0185 32.0888 70.9758 32.2749Z" fill="#9E6767"/>
<path d="M80.2458 58.2598C76.7975 57.8964 73.1946 57.3088 71.2695 56.2651C70.0203 55.6191 68.982 54.6292 68.2773 53.4121C68.2773 53.4121 68.4242 54.7883 70.2489 56.6362C72.3055 58.716 80.2458 59.5742 80.2458 59.5742V58.2598Z" fill="#874C4C"/>
<path d="M76.7125 42.2704C76.7064 42.5035 76.632 42.7297 76.4985 42.9208C76.365 43.112 76.1784 43.2598 75.9617 43.3459C75.745 43.4319 75.5078 43.4524 75.2795 43.4049C75.0512 43.3574 74.842 43.2439 74.6776 43.0785C74.5133 42.9131 74.4011 42.7031 74.355 42.4746C74.3089 42.246 74.331 42.0089 74.4184 41.7928C74.5059 41.5766 74.6548 41.3909 74.8468 41.2587C75.0389 41.1264 75.2655 41.0535 75.4986 41.0488C75.8212 41.0509 76.13 41.1805 76.3574 41.4093C76.5848 41.6382 76.7125 41.9478 76.7125 42.2704Z" fill="#263238"/>
<path d="M84.6685 36.0252C85.9092 36.2304 87.0848 36.7228 88.1013 37.4633C88.2853 36.9939 88.2801 36.4714 88.0869 36.0057C87.8937 35.54 87.5275 35.1673 87.0652 34.966C86.8388 34.8731 86.596 34.827 86.3513 34.8302C86.1066 34.8335 85.8651 34.8862 85.6412 34.9851C85.4174 35.0841 85.2159 35.2272 85.0487 35.4059C84.8815 35.5846 84.7522 35.7953 84.6685 36.0252Z" fill="#263238"/>
<path d="M76.6586 49.2676L80.911 50.4814C80.8444 50.7661 80.7211 51.0343 80.5485 51.2702C80.3758 51.506 80.1573 51.7046 79.9061 51.854C79.6549 52.0034 79.3762 52.1006 79.0865 52.1398C78.7968 52.1789 78.5023 52.1592 78.2204 52.0819C77.6465 51.906 77.1632 51.5145 76.8719 50.9897C76.5807 50.4649 76.5042 49.8476 76.6586 49.2676Z" fill="#874C4C"/>
<path d="M77.0683 50.25C77.5547 50.2874 78.0106 50.5016 78.3498 50.8522C78.689 51.2028 78.888 51.6655 78.9092 52.1528C78.6776 52.1641 78.4455 52.1407 78.2208 52.0832C77.8275 51.9519 77.4766 51.7176 77.2046 51.4048C76.9325 51.0919 76.7492 50.7118 76.6738 50.3041C76.8033 50.2735 76.9354 50.2553 77.0683 50.25Z" fill="#F28F8F"/>
<path d="M76.0316 38.9467C74.8057 39.1695 73.6942 39.8085 72.8848 40.7559C72.7649 40.554 72.6866 40.3302 72.6544 40.0976C72.6222 39.865 72.6367 39.6284 72.6972 39.4015C72.7577 39.1746 72.8629 38.9621 73.0067 38.7765C73.1504 38.5908 73.3298 38.4358 73.5343 38.3204C73.9507 38.0814 74.4435 38.0132 74.9092 38.13C75.3749 38.2467 75.7772 38.5395 76.0316 38.9467Z" fill="#263238"/>
<path d="M87.2511 41.3427C87.2465 41.5777 87.1729 41.8061 87.0394 41.9996C86.906 42.1931 86.7187 42.343 86.5006 42.4309C86.2826 42.5187 86.0436 42.5404 85.8133 42.4935C85.5831 42.4465 85.3717 42.3328 85.2055 42.1666C85.0393 42.0005 84.9257 41.7891 84.8787 41.5588C84.8317 41.3285 84.8535 41.0895 84.9413 40.8715C85.0291 40.6535 85.1791 40.4661 85.3726 40.3327C85.566 40.1993 85.7945 40.1257 86.0295 40.1211C86.3534 40.1211 86.6642 40.2498 86.8933 40.4789C87.1223 40.708 87.2511 41.0187 87.2511 41.3427Z" fill="#263238"/>
<path d="M80.1455 39.0625L80.9187 47.861L85.2793 46.5235C84.1109 43.7036 82.3617 41.1614 80.1455 39.0625Z" fill="#874C4C"/>
<path d="M78.9856 70.9013C77.4393 69.958 74.4395 67.7468 72.9395 69.641C71.4396 71.5353 70.334 73.7465 69.2361 73.414C68.1382 73.0816 64.5353 69.641 63.1745 66.6721C62.4884 65.0471 62.131 63.3022 62.123 61.5383C62.123 61.5383 63.4297 60.1003 64.5121 58.9869C65.7105 57.7499 65.9115 57.4406 66.8316 57.3633L66.9553 60.6569C67.0562 61.3104 67.2858 61.9374 67.6309 62.5015C67.9759 63.0656 68.4296 63.5555 68.9655 63.9429C71.6715 65.8989 77.0605 66.6025 78.9856 70.9013Z" fill="#263238"/>
<path d="M78.9858 70.9001C79.8982 70.0805 81.1739 67.8693 82.6429 68.3022C84.1119 68.7352 85.5422 71.6423 85.5886 70.8537C85.635 70.065 84.3284 65.8823 83.1068 63.5705C82.1713 61.7923 81.228 60.2227 80.2461 60.0449V62.6273C80.2461 62.6273 80.2461 64.8617 80.1378 66.1993C80.0802 67.8286 79.688 69.4287 78.9858 70.9001Z" fill="#263238"/>
<path d="M55.8608 70.3948C57.3332 68.551 58.4239 66.4326 59.0694 64.1631C59.7266 61.5189 61.8142 59.0835 62.5255 58.0861C63.2368 57.0887 64.7676 55.612 65.9351 54.2203C67.1026 52.8286 67.4814 52.4188 69.1282 52.1405C71.4477 51.7462 73.2492 51.3673 74.1538 51.6611C75.0584 51.9549 75.0274 52.5271 74.2465 53.3234C73.4656 54.1198 71.8034 54.3208 71.2931 54.4754C70.7828 54.6301 69.654 55.1249 69.654 55.1249L67.5123 58.2716C68.9813 58.5221 70.4307 58.876 71.8498 59.3309C72.5611 59.7174 73.1719 61.5498 72.8549 62.5704C72.8549 62.5704 74.1847 63.4673 73.628 64.7739C73.628 64.7739 74.4398 65.8331 73.8832 66.7068C73.2542 67.5825 72.5309 68.3862 71.726 69.1036C71.2853 69.4824 69.538 69.5752 69.538 69.5752C68.7676 70.7488 67.8475 71.8171 66.801 72.7529C65.5562 73.673 64.7444 73.6111 63.3837 75.544L55.8608 70.3948Z" fill="#9E6767"/>
<path d="M69.1431 58.579C70.0013 58.2079 70.1946 57.628 71.0064 57.9373C71.8182 58.2465 71.5012 59.1666 71.5012 59.1666L69.1431 58.579Z" fill="#874C4C"/>
<path d="M72.8307 62.6328C72.2944 62.1798 71.7019 61.7978 71.0679 61.4963C70.4726 61.2025 69.251 60.7695 69.251 60.7695C70.1159 60.8426 70.9653 61.0432 71.7715 61.3649C72.1841 61.5247 72.5802 61.724 72.9544 61.9602C72.952 62.1615 72.9234 62.3616 72.8694 62.5555L72.8307 62.6328Z" fill="#874C4C"/>
<path d="M72.9474 63.8589C73.2347 63.9792 73.5137 64.1187 73.7824 64.2764C73.7601 64.4772 73.7133 64.6745 73.6432 64.864C72.9657 64.2491 72.179 63.7665 71.3237 63.4414C71.8791 63.5184 72.4238 63.6584 72.9474 63.8589Z" fill="#874C4C"/>
<path d="M69.251 70.0438C69.7487 69.0409 70.3416 68.0881 71.0215 67.1986C71.2406 66.9519 71.545 66.7973 71.8734 66.7658C72.2018 66.7342 72.53 66.8281 72.792 67.0285C73.0163 67.3764 71.8411 67.33 71.5009 67.4846C70.6221 68.2152 69.863 69.0787 69.251 70.0438Z" fill="#874C4C"/>
<path d="M66.522 58.1601C66.522 58.1601 67.1869 57.2245 68.3698 55.7323C69.5528 54.2402 69.4909 54.4566 70.6429 54.2324C71.7949 54.0082 73.9829 53.6139 74.5705 52.9258C74.472 53.0601 74.3635 53.1867 74.2458 53.3046C73.4727 54.0778 71.8026 54.302 71.2924 54.4566C70.7821 54.6113 69.6533 55.1061 69.6533 55.1061L67.4498 58.3456L66.522 58.1601Z" fill="#874C4C"/>
<path d="M55.8603 70.3926C51.9868 75.0702 41.5414 86.281 39.0983 90.7885C37.4282 93.8811 37.0107 101.079 38.7117 103.693C40.4126 106.306 45.2913 105.239 49.2421 101.744C52.644 98.752 55.4892 91.5539 57.9633 86.4279C60.4374 81.3018 63.3754 75.5263 63.3754 75.5263L55.8603 70.3926Z" fill="#9E6767"/>
<path d="M55.8608 70.3936C56.748 69.2096 57.5244 67.9466 58.1803 66.6206C58.4951 65.9525 58.7537 65.2594 58.9535 64.5485C59.1214 63.8244 59.3569 63.1178 59.657 62.4378C60.3081 61.1037 61.1013 59.8439 62.0229 58.6802C62.9006 57.4896 63.859 56.3607 64.8913 55.3015C65.3939 54.7603 65.8655 54.1959 66.3371 53.6238C66.7857 53.0095 67.4037 52.5393 68.1154 52.2707C68.8351 52.0794 69.5658 51.9322 70.3034 51.83C71.0302 51.7063 71.757 51.5749 72.4992 51.4976C72.871 51.4511 73.246 51.4356 73.6203 51.4512C74.0156 51.4523 74.4012 51.5737 74.7259 51.7991C74.8127 51.8667 74.8805 51.9556 74.9225 52.0573C74.9645 52.159 74.9794 52.2698 74.9656 52.379C74.9319 52.5798 74.8526 52.7703 74.7336 52.9357C74.5133 53.2469 74.2318 53.51 73.9063 53.7088C73.2454 54.0686 72.5297 54.3168 71.7879 54.4433C71.0764 54.6335 70.385 54.8925 69.7236 55.2165L69.7777 55.1778L67.6283 58.3168L67.5665 58.1622C68.8808 58.4251 70.1952 58.6725 71.4864 59.0668C71.6532 59.1156 71.814 59.1831 71.9657 59.2678C72.1179 59.3647 72.2493 59.4908 72.3523 59.6389C72.5485 59.9217 72.7021 60.2317 72.8085 60.559C73.0554 61.2047 73.1118 61.9078 72.9708 62.5847V62.4919C73.3309 62.7476 73.6164 63.0945 73.7981 63.497C73.8883 63.7014 73.9332 63.923 73.9295 64.1464C73.9312 64.3689 73.8892 64.5896 73.8058 64.7959V64.7186C74.0157 64.9734 74.1571 65.2775 74.2166 65.6022C74.2761 65.9269 74.2518 66.2615 74.146 66.5742C73.811 67.1161 73.4169 67.6192 72.9708 68.0741C72.7543 68.306 72.5379 68.5302 72.3059 68.7545C72.0931 68.9994 71.8292 69.1947 71.5328 69.3266C70.9213 69.5041 70.2903 69.6054 69.654 69.6281H69.7004C69.2933 70.2259 68.8546 70.8014 68.386 71.3523C67.9393 71.9321 67.4195 72.4518 66.8397 72.8986C66.2444 73.3238 65.5717 73.5944 64.9841 74.0197C64.4133 74.4539 63.9148 74.9758 63.5074 75.566C63.8756 74.9451 64.3402 74.3866 64.8836 73.9114C65.4635 73.4785 66.1361 73.1924 66.716 72.7594C67.2973 72.3143 67.8172 71.7944 68.2623 71.2131C68.7191 70.6552 69.1475 70.0746 69.5457 69.4735C70.1715 69.4416 70.7915 69.3378 71.3936 69.1642C71.673 69.0402 71.9193 68.8521 72.1126 68.6153C72.3368 68.3988 72.5611 68.1746 72.7698 67.9426C73.2036 67.4961 73.5873 67.0035 73.9141 66.4737C74.0054 66.185 74.0229 65.878 73.9648 65.5808C73.9067 65.2836 73.775 65.0057 73.5816 64.7727V64.734C73.6517 64.5433 73.6884 64.3419 73.6899 64.1387C73.6874 63.9366 73.6454 63.737 73.5662 63.5511C73.3933 63.1779 73.127 62.8557 72.793 62.6156H72.7466V62.5537C72.8777 61.9123 72.8213 61.2466 72.5842 60.6363C72.36 60.0332 72.043 59.3915 71.3704 59.2678C70.0947 58.889 68.7726 58.6416 67.5046 58.3864H67.35L67.435 58.255L69.5689 55.1082C70.2405 54.7829 70.9423 54.524 71.6642 54.3351C72.3817 54.2112 73.0755 53.9764 73.7208 53.6392C74.0334 53.443 74.2977 53.1787 74.494 52.8661C74.7027 52.5877 74.8032 52.2166 74.494 52.0156C73.8569 51.6921 73.1274 51.5992 72.4296 51.7527C71.6565 51.83 70.9683 51.946 70.2416 52.0697C69.5151 52.1704 68.7949 52.3124 68.0845 52.495C67.4013 52.7497 66.8074 53.1985 66.3758 53.7861C65.9042 54.3505 65.4248 54.9227 64.9223 55.4639C63.8808 56.5109 62.917 57.6324 62.0384 58.8194C61.118 59.9701 60.3247 61.217 59.6725 62.5383C59.3638 63.2092 59.1204 63.9082 58.9457 64.6258C58.7467 65.337 58.4881 66.0301 58.1726 66.6979C57.5136 67.9961 56.7399 69.2329 55.8608 70.3936Z" fill="#874C4C"/>
<path d="M131.12 82.0215L100.016 93.4951L91.9438 130.823L92.6552 131.558L122.213 120.03L131.831 82.7482L131.12 82.0215Z" fill="#BA68C8"/>
<path opacity="0.25" d="M131.12 82.0215L100.016 93.4951L91.9438 130.823L92.6552 131.558L122.213 120.03L131.831 82.7482L131.12 82.0215Z" fill="white"/>
<path d="M100.727 94.2267L92.6552 131.555L91.9438 130.82L100.016 93.4922L100.727 94.2267Z" fill="#BA68C8"/>
<path opacity="0.35" d="M100.727 94.2267L92.6552 131.555L91.9438 130.82L100.016 93.4922L100.727 94.2267Z" fill="black"/>
<path d="M131.831 82.7441L100.727 94.2255L92.6553 131.554L122.213 120.026L131.831 82.7441Z" fill="#BA68C8"/>
<g opacity="0.2">
<path opacity="0.2" d="M117.458 112.57C117.76 113.297 120.18 114.89 123.643 114.534L124.2 112.377L117.458 112.57Z" fill="black"/>
</g>
<g opacity="0.1">
<path opacity="0.1" d="M122.523 90.5009L122.763 89.2561C122.894 88.5603 121.062 88.9468 118.673 90.122L113.06 91.908C110.671 93.0832 108.421 93.9569 108.274 94.645L108.034 95.8975L122.523 90.5009Z" fill="black"/>
</g>
<path d="M124.3 84.8373C124.385 84.4043 123.666 84.5048 122.677 84.7832L120.883 85.4249C120.883 85.4249 121.486 83.2832 117.35 84.8218C112.054 86.7856 112.61 88.502 112.61 88.502C111.88 88.829 111.131 89.113 110.368 89.3525C108.822 89.8783 108.652 90.1875 108.528 90.6282L108.312 91.4014L124.146 85.5795C124.146 85.5795 124.215 85.2702 124.3 84.8373Z" fill="#37474F"/>
<path d="M122.661 87.2549C121.192 87.943 120.582 88.2832 120.342 89.3424C120.102 90.564 120.056 91.0665 120.056 91.0665L111.806 94.4607C111.806 94.4607 112.232 92.667 112.332 92.0717C112.433 91.4763 111.335 91.484 109.912 92.1722L110.229 90.68L122.971 86.041L122.661 87.2549Z" fill="#263238"/>
<path d="M122.947 90.5165L123.187 89.2717C123.319 88.5759 121.494 88.9625 119.105 90.1377L113.484 91.9237C111.095 93.0911 108.845 93.9725 108.698 94.6606L108.458 95.9132L122.947 90.5165Z" fill="#263238"/>
<path d="M128.537 95.5597C128.537 95.5597 127.486 99.6574 127.208 100.693C126.929 101.729 121.85 104.165 119.29 104.559C114.396 105.24 113.878 106.314 115.084 109.778C116.213 112.971 119.43 114.139 123.844 113.551C125.233 113.262 126.521 112.608 127.574 111.657C128.627 110.706 129.408 109.492 129.836 108.139C131.212 104.018 130.377 99.6342 130.911 97.2451C131.444 94.8561 129.759 94.0829 128.537 95.5597Z" fill="#9E6767"/>
<path d="M140.098 141.176C140.492 140.248 141.505 139.575 143.036 139.39C144.723 139.275 146.414 139.563 147.969 140.228C149.524 140.893 150.899 141.917 151.981 143.217C152.909 144.446 153.133 145.645 152.755 146.572L127.279 213.157C126.792 214.564 125.354 215.577 123.104 215.855C118.821 216.373 113.246 214 110.656 210.551C109.295 208.742 109.04 206.995 109.705 205.673L140.098 141.176Z" fill="#455A64"/>
<path d="M151.982 143.216C153.837 145.683 152.855 147.987 149.794 148.358C148.115 148.469 146.434 148.183 144.887 147.523C143.34 146.864 141.969 145.849 140.887 144.562C139.031 142.095 140.013 139.791 143.075 139.42C144.753 139.308 146.435 139.594 147.982 140.253C149.53 140.913 150.9 141.928 151.982 143.216Z" fill="#37474F"/>
<path d="M152.608 121.847C153.629 121.778 154.652 121.952 155.593 122.355C156.534 122.758 157.366 123.379 158.02 124.166C158.27 124.432 158.445 124.76 158.525 125.117C158.605 125.473 158.588 125.844 158.476 126.192L150.234 145.521C150.061 145.843 149.805 146.112 149.492 146.301C149.179 146.49 148.821 146.592 148.456 146.596C147.435 146.665 146.411 146.491 145.47 146.088C144.53 145.685 143.698 145.064 143.044 144.276C142.794 144.008 142.619 143.679 142.539 143.321C142.459 142.964 142.476 142.591 142.588 142.243L150.83 122.914C151.005 122.594 151.262 122.327 151.574 122.14C151.887 121.952 152.243 121.851 152.608 121.847Z" fill="#BA68C8"/>
<path opacity="0.2" d="M152.608 121.847C153.629 121.778 154.652 121.952 155.593 122.355C156.534 122.758 157.366 123.379 158.02 124.166C158.27 124.432 158.445 124.76 158.525 125.117C158.605 125.473 158.588 125.844 158.476 126.192L150.234 145.521C150.061 145.843 149.805 146.112 149.492 146.301C149.179 146.49 148.821 146.592 148.456 146.596C147.435 146.665 146.411 146.491 145.47 146.088C144.53 145.685 143.698 145.064 143.044 144.276C142.794 144.008 142.619 143.679 142.539 143.321C142.459 142.964 142.476 142.591 142.588 142.243L150.83 122.914C151.005 122.594 151.262 122.327 151.574 122.14C151.887 121.952 152.243 121.851 152.608 121.847Z" fill="black"/>
<path opacity="0.2" d="M147.033 131.846L147.605 132.179L147.69 132.233L147.799 132.295L147.922 132.357C148.285 132.572 148.66 132.769 149.043 132.944C149.506 133.178 149.981 133.388 150.466 133.571C150.893 133.756 151.329 133.918 151.773 134.058C151.998 134.139 152.227 134.206 152.461 134.259C152.712 134.354 152.971 134.429 153.234 134.483C153.497 134.56 153.736 134.622 154.007 134.676C154.192 134.73 154.381 134.768 154.571 134.792H154.765L158.453 126.133C158.565 125.785 158.582 125.414 158.501 125.058C158.421 124.701 158.247 124.373 157.997 124.107C157.772 123.818 157.512 123.558 157.223 123.334C154.922 124.039 152.539 124.447 150.134 124.548L147.033 131.846Z" fill="black"/>
<path opacity="0.15" d="M146.755 148.134L119.934 215.739C120.979 215.914 122.042 215.948 123.096 215.84C125.346 215.561 126.784 214.548 127.271 213.141L152.693 146.588C152.298 147.523 151.286 148.181 149.755 148.366C148.749 148.46 147.734 148.381 146.755 148.134Z" fill="black"/>
<path d="M230.55 41.7959C230.55 41.2392 230.503 40.6903 230.457 40.1413C230.411 39.5924 230.395 39.0666 230.341 38.5332C230.341 38.1698 230.271 37.8141 230.225 37.4585C230.132 36.5307 230.001 35.6106 229.846 34.737C229.777 34.3349 229.707 33.9638 229.63 33.5308C229.552 33.0979 229.475 32.7577 229.39 32.4098C229.158 31.3969 228.911 30.4073 228.617 29.4563C228.47 29.0079 228.331 28.5594 228.176 28.1187C228.148 28.0514 228.128 27.9815 228.114 27.91C227.952 27.4693 227.797 27.0518 227.627 26.642C227.457 26.2322 227.248 25.6756 227.032 25.2271C226.815 24.7787 226.73 24.5545 226.552 24.2297C226.453 23.9837 226.334 23.7459 226.197 23.5184C226.058 23.2324 225.911 22.9386 225.741 22.6602C225.709 22.5958 225.673 22.5338 225.632 22.4747C225.493 22.2273 225.346 21.9799 225.199 21.7015C225.053 21.4232 224.991 21.3845 224.898 21.2299C224.195 20.1359 223.404 19.1016 222.532 18.1373L222.099 17.6424C221.975 17.5033 221.852 17.3796 221.728 17.2559C221.604 17.1322 221.419 16.9389 221.249 16.7765C220.803 16.3205 220.328 15.8943 219.826 15.5008C219.594 15.2998 219.347 15.1065 219.099 14.9287C218.852 14.7508 218.604 14.5575 218.326 14.3797C217.924 14.0936 217.514 13.823 217.105 13.6066L216.78 13.4055L216.71 13.3514L209.056 8.8439L208.948 8.78205C205.224 6.7023 201.02 5.63592 196.755 5.68942C190.4 5.68942 183.225 7.76921 175.617 12.153C149.5 27.2219 128.323 63.8618 128.323 94.015C128.323 109.053 133.588 119.637 142.085 124.593H142.17L149.84 129.085L149.925 129.14L150.033 129.201C150.079 129.201 150.118 129.248 150.157 129.263C150.52 129.479 150.894 129.675 151.278 129.851C151.742 130.083 152.221 130.292 152.708 130.477C153.131 130.664 153.564 130.824 154.007 130.956C154.231 131.044 154.461 131.114 154.695 131.165C154.946 131.261 155.205 131.335 155.468 131.389C155.731 131.467 155.971 131.529 156.241 131.583C156.427 131.632 156.616 131.671 156.806 131.699C157.138 131.768 157.486 131.838 157.834 131.877C157.91 131.908 157.992 131.923 158.074 131.923C158.476 131.985 158.893 132.047 159.295 132.085C166.339 132.858 174.527 130.84 183.263 125.784C209.388 110.707 230.565 74.0211 230.565 43.8757C230.588 43.2262 230.573 42.5149 230.55 41.7959ZM144.374 112.926C143.287 108.894 142.751 104.732 142.781 100.556C142.781 71.9491 163.656 35.7575 188.436 21.4696C192.054 19.3286 195.959 17.7145 200.033 16.676C201.983 16.1843 203.984 15.9248 205.994 15.9028C207.007 15.8981 208.018 15.9756 209.017 16.1348H209.102C214.167 22.1268 214.909 31.7294 214.909 36.8554C214.909 65.4623 194.033 101.654 169.292 115.934C162.999 119.568 156.922 121.493 151.749 121.493C150.672 121.5 149.598 121.362 148.556 121.083C146.623 118.688 145.199 115.923 144.374 112.957V112.926Z" fill="#37474F"/>
<path opacity="0.25" d="M223.784 41.9249C223.784 57.102 217.885 74.4362 208.646 89.4973C208.213 90.2163 207.765 90.9199 207.308 91.6235C206.852 92.3271 206.535 92.8296 206.125 93.4327C205.252 94.7238 204.378 95.9918 203.458 97.2366C203.025 97.8345 202.584 98.4221 202.136 98.9994C201.649 99.6411 201.154 100.275 200.659 100.901C199.708 102.1 198.719 103.267 197.721 104.404C197.064 105.177 196.391 105.911 195.719 106.63C190.6 112.261 184.675 117.102 178.137 120.996C176.954 121.684 175.818 122.302 174.627 122.867C170.864 124.787 166.786 126.012 162.589 126.485C161.929 126.552 161.265 126.586 160.602 126.586C160.254 126.586 159.929 126.586 159.597 126.586C158.967 126.562 158.339 126.497 157.718 126.392C157.416 126.346 157.115 126.3 156.829 126.23C156.543 126.16 156.249 126.106 155.963 126.021C153.033 125.275 150.428 123.588 148.548 121.22C149.587 121.496 150.659 121.631 151.734 121.622C156.929 121.622 162.983 119.712 169.284 116.078C194.026 101.798 214.901 65.5681 214.901 36.9921C214.901 31.8584 214.128 22.3021 209.087 16.2715H209.009C215.465 17.3075 219.13 21.6836 221.202 26.7632C221.787 28.2006 222.258 29.682 222.609 31.1934C222.609 31.2785 222.648 31.3558 222.663 31.4408C222.733 31.7115 222.802 31.9898 222.849 32.2681C222.895 32.5465 222.957 32.8016 223.003 33.0413C223.009 33.1108 223.009 33.1805 223.003 33.25C223.058 33.5361 223.112 33.8222 223.158 34.1005C223.32 35.1597 223.452 36.188 223.537 37.1931C223.537 37.4869 223.591 37.7575 223.607 38.0282C223.622 38.2988 223.607 38.4457 223.653 38.6467C223.653 38.7317 223.653 38.8168 223.653 38.9018C223.653 39.126 223.653 39.3425 223.692 39.559C223.695 39.6182 223.695 39.6776 223.692 39.7368C223.692 40.0152 223.692 40.2729 223.692 40.51C223.784 40.9739 223.784 41.4378 223.784 41.9249Z" fill="black"/>
<path d="M149.183 128.805L142.085 124.63C133.58 119.658 128.323 109.082 128.323 94.067C128.323 80.6217 132.536 65.8776 139.51 52.3164L147.598 56.9554C140.639 70.4856 136 85.0674 136 98.5203C135.985 113.257 140.995 123.694 149.183 128.805Z" fill="#263238"/>
<path d="M216.811 13.3822L216.741 13.3281L209.087 8.82827L208.979 8.75869C205.255 6.67792 201.051 5.61148 196.786 5.66606C190.43 5.66606 183.256 7.74585 175.648 12.1297C161.174 20.4875 148.224 35.4868 139.557 52.3339L147.605 57.0656L147.427 57.3981C156.125 40.7442 169.014 25.6986 183.333 16.6449C196.291 8.48035 208.592 8.36438 217.182 13.5523L216.811 13.3822Z" fill="#455A64"/>
<path opacity="0.1" d="M219.671 39.4991C219.671 68.1059 198.796 104.297 174.016 118.585C170.399 120.73 166.494 122.344 162.419 123.379C160.469 123.871 158.468 124.13 156.457 124.152C154.393 124.177 152.342 123.826 150.404 123.116C147.311 120.534 145.471 116.807 144.358 112.972C143.271 108.94 142.735 104.778 142.765 100.602C142.765 71.9949 163.64 35.8034 188.42 21.5154C192.038 19.3744 195.943 17.7603 200.017 16.7218C201.967 16.2301 203.968 15.9706 205.978 15.9487C208.042 15.9222 210.093 16.2706 212.032 16.977C215.125 19.5516 216.965 23.2937 218.078 27.1208C219.165 31.1561 219.701 35.32 219.671 39.4991Z" fill="#BA68C8"/>
<path opacity="0.3" d="M156.473 124.169C158.484 124.147 160.485 123.888 162.434 123.396C166.509 122.361 170.415 120.747 174.032 118.602C198.773 104.314 219.687 68.0919 219.687 39.516C219.716 35.3395 219.181 31.1782 218.094 27.1454C216.981 23.326 215.133 19.5917 212.071 17.0171L211.777 16.9165C211.507 16.816 211.236 16.731 210.95 16.6459L210.463 16.5145C210.185 16.4372 209.891 16.3831 209.605 16.3212L209.094 16.2207H209.04H209.094C214.166 22.2127 214.909 31.8076 214.909 36.9413C214.909 65.5482 194.033 101.747 169.292 116.028C162.991 119.662 156.922 121.571 151.742 121.571C150.667 121.58 149.595 121.445 148.556 121.169L148.603 121.231C149.168 121.91 149.792 122.539 150.466 123.11C152.388 123.822 154.423 124.181 156.473 124.169Z" fill="white"/>
<path d="M276.18 53.137L241.241 73.3087C239.37 74.3834 237.855 73.2391 237.855 70.7418V40.434C237.855 37.9367 239.401 35.0219 241.241 33.9549L276.18 13.791C278.051 12.7086 279.567 13.8528 279.567 16.3501V46.6657C279.551 49.1707 278.051 52.0546 276.18 53.137Z" fill="#FAFAFA"/>
<path d="M239.896 74.0822C239.527 74.0855 239.164 73.9893 238.845 73.8039C237.979 73.3091 237.484 72.1957 237.484 70.7112V40.4344C237.484 37.8211 239.092 34.7749 241.056 33.6383L275.995 13.4666C276.369 13.2055 276.807 13.0509 277.261 13.0196C277.716 12.9883 278.171 13.0813 278.577 13.2888C279.443 13.7913 279.938 14.9047 279.938 16.3814V46.697C279.938 49.3025 278.338 52.3565 276.366 53.493L241.435 73.6261C240.971 73.9108 240.44 74.0682 239.896 74.0822ZM277.526 13.7759C277.114 13.7895 276.714 13.9122 276.366 14.1315L241.435 34.28C239.664 35.3006 238.226 38.0608 238.226 40.4653V70.7731C238.226 71.9483 238.589 72.8297 239.216 73.1931C239.51 73.3308 239.836 73.387 240.16 73.3557C240.484 73.3244 240.793 73.2068 241.056 73.0153L275.995 52.8436C277.758 51.823 279.196 49.0705 279.196 46.697V16.3505C279.196 15.1753 278.832 14.2939 278.206 13.9305C277.998 13.8147 277.764 13.756 277.526 13.7604V13.7759Z" fill="#E0E0E0"/>
<path d="M268.518 30.4219L261.39 56.0598L275.647 47.8257L268.518 30.4219Z" fill="#BA68C8"/>
<path opacity="0.3" d="M268.518 30.4219L261.39 56.0598L275.647 47.8257L268.518 30.4219Z" fill="white"/>
<path d="M258.715 28.6582L251.579 61.7184L265.843 53.4843L258.715 28.6582Z" fill="#BA68C8"/>
<path d="M248.988 45.7617L241.86 67.3328L256.117 59.1064L248.988 45.7617Z" fill="#BA68C8"/>
<path opacity="0.3" d="M248.988 45.7617L241.86 67.3328L256.117 59.1064L248.988 45.7617Z" fill="black"/>
<path d="M243.213 38.8421L242.092 39.4916C241.96 39.5612 241.86 39.4916 241.86 39.3138V37.4814C241.861 37.3948 241.883 37.3098 241.923 37.2332C241.963 37.1566 242.021 37.0907 242.092 37.0407L243.213 36.3912C243.344 36.3139 243.445 36.3912 243.445 36.5691V38.3937C243.444 38.4813 243.422 38.5675 243.382 38.6453C243.342 38.7231 243.284 38.7905 243.213 38.8421Z" fill="#BA68C8"/>
<path opacity="0.3" d="M243.213 38.8421L242.092 39.4916C241.96 39.5612 241.86 39.4916 241.86 39.3138V37.4814C241.861 37.3948 241.883 37.3098 241.923 37.2332C241.963 37.1566 242.021 37.0907 242.092 37.0407L243.213 36.3912C243.344 36.3139 243.445 36.3912 243.445 36.5691V38.3937C243.444 38.4813 243.422 38.5675 243.382 38.6453C243.342 38.7231 243.284 38.7905 243.213 38.8421Z" fill="black"/>
<path d="M243.213 42.3679L242.092 43.0173C241.96 43.0947 241.86 43.0173 241.86 42.8395V41.0149C241.861 40.9272 241.883 40.8411 241.923 40.7633C241.963 40.6854 242.021 40.618 242.092 40.5664L243.213 39.8938C243.344 39.8242 243.445 39.8938 243.445 40.0716V41.904C243.447 41.9944 243.428 42.0841 243.387 42.1651C243.347 42.246 243.287 42.3157 243.213 42.3679Z" fill="#BA68C8"/>
<path d="M243.213 45.895L242.092 46.5445C241.96 46.6218 241.86 46.5445 241.86 46.3744V44.5343C241.86 44.4475 241.881 44.362 241.921 44.2852C241.962 44.2084 242.02 44.1426 242.092 44.0936L243.213 43.4441C243.344 43.3668 243.445 43.4441 243.445 43.6142V45.4466C243.446 45.5347 243.426 45.6217 243.385 45.7C243.345 45.7782 243.286 45.8452 243.213 45.895Z" fill="#BA68C8"/>
<path opacity="0.3" d="M243.213 45.895L242.092 46.5445C241.96 46.6218 241.86 46.5445 241.86 46.3744V44.5343C241.86 44.4475 241.881 44.362 241.921 44.2852C241.962 44.2084 242.02 44.1426 242.092 44.0936L243.213 43.4441C243.344 43.3668 243.445 43.4441 243.445 43.6142V45.4466C243.446 45.5347 243.426 45.6217 243.385 45.7C243.345 45.7782 243.286 45.8452 243.213 45.895Z" fill="white"/>
<path d="M182.466 154.919C182.532 154.888 182.589 154.842 182.634 154.784C182.678 154.726 182.708 154.658 182.721 154.587C182.879 153.957 183.003 153.32 183.092 152.677C183.182 152.07 183.236 151.458 183.254 150.845C183.254 150.69 183.177 150.605 183.069 150.644L181.801 151.03C181.789 150.175 181.653 149.326 181.399 148.51L182.481 146.963C182.527 146.904 182.558 146.834 182.573 146.761C182.587 146.687 182.585 146.611 182.566 146.538C182.251 145.739 181.753 145.024 181.113 144.451C181.035 144.389 180.912 144.451 180.819 144.582L179.744 146.128C179.228 145.778 178.621 145.585 177.997 145.572L178.26 143.732C178.26 143.569 178.221 143.461 178.121 143.461C177.69 143.495 177.264 143.578 176.853 143.708C176.398 143.847 175.958 144.029 175.538 144.25C175.477 144.294 175.426 144.351 175.387 144.416C175.348 144.481 175.324 144.553 175.314 144.628L175.051 146.469C174.293 146.95 173.601 147.53 172.994 148.193L172.283 147.164C172.221 147.079 172.098 147.103 171.997 147.218C171.16 148.21 170.425 149.282 169.801 150.419C169.768 150.483 169.751 150.553 169.751 150.624C169.751 150.696 169.768 150.766 169.801 150.829L170.513 151.85C170.033 152.812 169.642 153.816 169.345 154.85L168.077 155.236C168.011 155.268 167.953 155.314 167.907 155.372C167.861 155.429 167.83 155.497 167.814 155.569C167.66 156.203 167.536 156.837 167.443 157.478C167.359 158.088 167.307 158.703 167.289 159.318C167.289 159.465 167.366 159.55 167.474 159.519L168.742 159.133C168.753 159.983 168.889 160.827 169.144 161.638L168.062 163.184C168.017 163.244 167.986 163.314 167.971 163.387C167.956 163.461 167.958 163.537 167.977 163.609C168.288 164.411 168.787 165.126 169.43 165.697C169.508 165.759 169.631 165.697 169.724 165.573L170.799 164.027C171.315 164.373 171.918 164.566 172.538 164.584L172.283 166.424C172.283 166.578 172.322 166.694 172.422 166.687C172.853 166.656 173.278 166.575 173.69 166.447C174.145 166.305 174.585 166.121 175.005 165.898C175.067 165.855 175.12 165.799 175.158 165.733C175.197 165.668 175.221 165.595 175.229 165.519L175.492 163.679C176.25 163.2 176.941 162.623 177.548 161.963L178.26 162.983C178.322 163.076 178.445 163.053 178.546 162.937C179.383 161.945 180.116 160.87 180.734 159.728C180.768 159.665 180.786 159.595 180.786 159.523C180.786 159.452 180.768 159.381 180.734 159.318L180.022 158.298C180.501 157.338 180.892 156.336 181.19 155.306L182.466 154.919ZM175.948 159.62C172.639 162.195 170.366 158.932 172.129 154.123C172.608 152.728 173.455 151.489 174.579 150.535C177.889 147.953 180.162 151.223 178.399 156.032C177.92 157.427 177.073 158.666 175.948 159.62Z" fill="#E6E6E6"/>
<path d="M192.122 155.312C192.147 155.283 192.165 155.248 192.176 155.211C192.187 155.173 192.189 155.134 192.184 155.096C192.157 154.727 192.105 154.36 192.029 153.998C191.958 153.67 191.857 153.349 191.728 153.039C191.728 152.985 191.643 152.985 191.589 153.039L190.731 153.813C190.538 153.417 190.248 153.076 189.888 152.823L190.336 151.547C190.336 151.462 190.336 151.377 190.336 151.354C189.862 151.103 189.324 150.996 188.79 151.045C188.736 151.045 188.674 151.114 188.643 151.199L188.195 152.475C187.705 152.563 187.237 152.747 186.818 153.016L186.594 152.003C186.592 151.99 186.586 151.978 186.577 151.968C186.569 151.958 186.558 151.95 186.545 151.945C186.533 151.941 186.519 151.939 186.506 151.941C186.493 151.943 186.481 151.949 186.47 151.957C186.159 152.178 185.862 152.418 185.581 152.676C185.28 152.958 184.996 153.257 184.731 153.573C184.704 153.603 184.683 153.639 184.671 153.677C184.659 153.716 184.656 153.757 184.661 153.797L184.885 154.81C184.461 155.358 184.091 155.945 183.78 156.565L183.007 156.418C182.96 156.418 182.891 156.418 182.86 156.534C182.468 157.367 182.162 158.237 181.947 159.132C181.947 159.217 181.947 159.286 182.002 159.294L182.775 159.449C182.64 160.089 182.575 160.743 182.581 161.397L181.731 162.17C181.7 162.198 181.675 162.233 181.659 162.272C181.643 162.311 181.636 162.353 181.638 162.395C181.661 162.764 181.713 163.131 181.793 163.492C181.864 163.82 181.965 164.141 182.094 164.451C182.094 164.505 182.179 164.505 182.234 164.451L183.092 163.678C183.28 164.077 183.571 164.418 183.934 164.668L183.486 165.951C183.486 166.028 183.486 166.113 183.486 166.137C183.961 166.387 184.498 166.494 185.032 166.446C185.086 166.446 185.148 166.376 185.179 166.291L185.62 165.023C186.112 164.929 186.581 164.743 187.004 164.474L187.228 165.487C187.228 165.502 187.232 165.516 187.24 165.528C187.248 165.541 187.26 165.55 187.273 165.555C187.287 165.56 187.302 165.561 187.316 165.557C187.33 165.553 187.343 165.545 187.352 165.534C187.665 165.315 187.962 165.075 188.241 164.815C188.542 164.535 188.826 164.238 189.091 163.925C189.143 163.86 189.168 163.777 189.161 163.693L188.937 162.688C189.36 162.137 189.73 161.547 190.042 160.926L190.816 161.08C190.862 161.08 190.932 161.034 190.962 160.956C191.35 160.122 191.655 159.252 191.875 158.359C191.875 158.274 191.875 158.204 191.821 158.196L191.048 158.042C191.183 157.401 191.247 156.748 191.241 156.093L192.122 155.312ZM188.256 160.786C186.486 163.245 184.298 162.75 184.445 159.874C184.527 158.735 184.923 157.64 185.589 156.712C187.367 154.261 189.548 154.756 189.408 157.632C189.329 158.771 188.929 159.864 188.256 160.786Z" fill="#E6E6E6"/>
<path d="M194.612 138.148C194.643 138.12 194.668 138.086 194.684 138.047C194.7 138.008 194.707 137.966 194.705 137.924C194.682 137.555 194.63 137.188 194.55 136.826C194.479 136.498 194.378 136.177 194.249 135.867C194.249 135.813 194.164 135.813 194.11 135.867L193.251 136.641C193.059 136.245 192.772 135.902 192.416 135.643L192.857 134.375C192.857 134.29 192.857 134.205 192.857 134.182C192.382 133.932 191.845 133.824 191.311 133.873C191.257 133.873 191.195 133.942 191.164 134.027L190.723 135.295C190.231 135.389 189.762 135.576 189.339 135.844L189.115 134.831C189.112 134.818 189.107 134.806 189.098 134.796C189.09 134.786 189.079 134.778 189.066 134.773C189.054 134.769 189.04 134.767 189.027 134.769C189.014 134.771 189.002 134.777 188.991 134.785C188.68 135.006 188.383 135.246 188.102 135.504C187.803 135.785 187.519 136.082 187.252 136.393C187.226 136.425 187.207 136.463 187.196 136.503C187.185 136.543 187.183 136.584 187.19 136.625L187.414 137.638C186.984 138.184 186.611 138.772 186.301 139.393L185.527 139.238C185.481 139.238 185.419 139.285 185.381 139.362C184.987 140.193 184.676 141.061 184.453 141.952C184.453 142.037 184.453 142.107 184.507 142.115L185.28 142.269C185.145 142.91 185.08 143.563 185.087 144.218L184.236 144.991C184.205 145.019 184.18 145.053 184.164 145.092C184.148 145.131 184.141 145.173 184.144 145.215C184.166 145.584 184.218 145.951 184.298 146.313C184.37 146.641 184.471 146.962 184.6 147.272C184.6 147.326 184.685 147.326 184.739 147.272L185.597 146.498C185.79 146.894 186.08 147.234 186.44 147.488L185.991 148.771C185.991 148.849 185.991 148.934 185.991 148.957C186.466 149.207 187.003 149.315 187.538 149.266C187.592 149.266 187.654 149.197 187.685 149.112L188.133 147.844C188.621 147.746 189.088 147.56 189.509 147.295L189.733 148.308C189.736 148.321 189.742 148.333 189.75 148.343C189.759 148.353 189.77 148.361 189.782 148.366C189.795 148.37 189.808 148.372 189.821 148.37C189.834 148.368 189.847 148.362 189.857 148.354C190.172 148.138 190.469 147.897 190.746 147.635C191.047 147.356 191.331 147.059 191.597 146.746C191.624 146.714 191.645 146.677 191.657 146.637C191.669 146.597 191.672 146.555 191.666 146.514L191.442 145.509C191.865 144.957 192.235 144.367 192.548 143.746L193.321 143.901C193.367 143.901 193.437 143.854 193.476 143.777C193.86 142.942 194.163 142.072 194.38 141.179C194.38 141.094 194.38 141.024 194.326 141.017L193.553 140.862C193.688 140.222 193.753 139.568 193.746 138.914L194.612 138.148ZM190.746 143.622C188.968 146.081 186.788 145.586 186.927 142.71C187.008 141.569 187.407 140.473 188.079 139.548C189.849 137.097 192.037 137.584 191.891 140.468C191.809 141.604 191.416 142.695 190.754 143.622H190.746Z" fill="#E6E6E6"/>
<path d="M107.378 51.3764C107.246 51.446 107.138 51.3764 107.138 51.1445V21.2619C107.136 21.1642 107.156 21.0672 107.198 20.9787C107.239 20.8902 107.301 20.8125 107.378 20.7516C107.509 20.6743 107.617 20.7517 107.617 20.9836V50.8662C107.618 50.9638 107.597 51.0603 107.556 51.1487C107.514 51.237 107.453 51.3149 107.378 51.3764Z" fill="#E0E0E0"/>
<path d="M138.528 33.3925L104.509 53.023C104.378 53.1003 104.277 53.023 104.277 52.7911C104.275 52.6951 104.294 52.5999 104.334 52.5128C104.375 52.4256 104.434 52.3489 104.509 52.2885L138.528 32.658C138.659 32.5807 138.76 32.658 138.76 32.8822C138.763 32.9794 138.744 33.0759 138.703 33.1644C138.663 33.2529 138.603 33.3309 138.528 33.3925Z" fill="#E0E0E0"/>
<path d="M113.246 23.4473L109.071 25.8595V46.843L113.246 44.4308V23.4473Z" fill="#F5F5F5"/>
<path d="M119.176 34.584L115 36.9962V43.4212L119.176 41.0089V34.584Z" fill="#EBEBEB"/>
<path d="M125.106 11.6113L120.931 14.0236V39.994L125.106 37.5817V11.6113Z" fill="#F5F5F5"/>
<path d="M131.036 18.5625L126.861 20.9747V36.5693L131.036 34.1571V18.5625Z" fill="#E0E0E0"/>
<path d="M136.966 21.1855L132.791 23.5978V33.1463L136.966 30.7418V21.1855Z" fill="#F5F5F5"/>
<path d="M229.621 95.2734V104.768L223.884 113.976C221.851 111.363 222.446 104.845 225.624 99.6959C226.584 97.9236 227.954 96.4072 229.621 95.2734Z" fill="#E0E0E0"/>
<path d="M237.461 103.65C236.316 109.418 232.335 114.784 228.415 115.743C227.744 115.949 227.03 115.968 226.349 115.799C225.668 115.63 225.046 115.279 224.549 114.784L230.355 105.398L237.461 103.65Z" fill="#F0F0F0"/>
<path d="M237.608 102.65L230.773 104.32L234.639 94.2305C237.028 95.1505 238.211 98.3823 237.608 102.65Z" fill="#E0E0E0"/>
<path d="M233.889 94.1545L230.425 103.293V94.7885C231.46 94.1533 232.695 93.9273 233.889 94.1545Z" fill="#F0F0F0"/>
<path d="M280.015 284.538C272.554 284.538 265.101 282.899 259.426 279.621C253.751 276.343 250.782 272.106 250.782 267.513C250.782 262.921 253.875 258.63 259.426 255.413C270.776 248.857 289.247 248.857 300.605 255.413C306.171 258.63 309.241 262.928 309.241 267.513C309.241 272.098 306.148 276.405 300.605 279.621C294.922 282.899 287.469 284.538 280.015 284.538ZM280.015 251.238C272.694 251.238 265.372 252.846 259.797 256.063C254.47 259.155 251.532 263.207 251.532 267.513C251.532 271.82 254.47 275.894 259.797 278.972C270.946 285.404 289.077 285.404 300.226 278.972C305.553 275.879 308.491 271.828 308.491 267.513C308.491 263.199 305.553 259.14 300.226 256.063C294.659 252.846 287.329 251.238 280.015 251.238Z" fill="#BA68C8"/>
<path d="M280.781 261.427V266.282L275.987 253.285V248.438L280.781 261.427Z" fill="#263238"/>
<path d="M280.789 261.426V266.282L300.566 259.416V254.568L280.789 261.426Z" fill="#37474F"/>
<path d="M275.987 248.399L280.789 261.427L300.566 254.569C295.138 249.829 285.737 247.463 275.987 248.399Z" fill="#455A64"/>
<path d="M255.329 262.334C255.325 262.383 255.325 262.432 255.329 262.481V262.334Z" fill="#BA68C8"/>
<path d="M278.817 267.55L275.879 281.367C263.887 280.199 255.228 274.13 255.329 267.202V262.471C255.329 269.344 263.972 275.344 275.887 276.511L277.905 267.017L278.817 267.55Z" fill="#BA68C8"/>
<path opacity="0.4" d="M278.817 267.55L275.879 281.367C263.887 280.199 255.228 274.13 255.329 267.202V262.471C255.329 269.344 263.972 275.344 275.887 276.511L277.905 267.017L278.817 267.55Z" fill="black"/>
<path d="M278.129 276.673V281.529C283.065 281.822 288.011 281.158 292.695 279.573C298.347 277.609 302.336 274.493 303.929 270.805C304.414 269.738 304.677 268.583 304.702 267.411C304.702 266.955 304.702 262.401 304.702 262.401C304.702 262.401 303.334 262.293 301.733 260.584L298.03 261.867L281.098 267.713L278.129 276.673Z" fill="#BA68C8"/>
<path opacity="0.6" d="M278.129 276.673V281.529C283.065 281.822 288.011 281.158 292.695 279.573C298.347 277.609 302.336 274.493 303.929 270.805C304.414 269.738 304.677 268.583 304.702 267.411C304.702 266.955 304.702 262.401 304.702 262.401C304.702 262.401 303.334 262.293 301.733 260.584L298.03 261.867L281.098 267.713L278.129 276.673Z" fill="white"/>
<path d="M263.369 256.779L278.106 265.284V260.436L263.369 251.932V256.779Z" fill="#BA68C8"/>
<path opacity="0.1" d="M263.369 256.779L278.106 265.284V260.436L263.369 251.932V256.779Z" fill="black"/>
<path d="M255.506 260.724C253.89 268.309 262.959 275.252 275.879 276.52L278.817 262.704L261.769 252.861C258.204 255.088 256.156 257.67 255.506 260.724Z" fill="#BA68C8"/>
<path opacity="0.3" d="M255.506 260.724C253.89 268.309 262.959 275.252 275.879 276.52L278.817 262.704L261.769 252.861C258.204 255.088 256.156 257.67 255.506 260.724Z" fill="black"/>
<path d="M278.214 276.271L278.129 276.673C283.068 276.958 288.015 276.281 292.695 274.678C298.347 272.714 302.336 269.606 303.929 265.911C305.437 262.431 304.64 258.828 301.702 255.689L297.999 256.973L281.098 262.857L278.214 276.271Z" fill="#BA68C8"/>
<path opacity="0.75" d="M278.214 276.271L278.129 276.673C283.068 276.958 288.015 276.281 292.695 274.678C298.347 272.714 302.336 269.606 303.929 265.911C305.437 262.431 304.64 258.828 301.702 255.689L297.999 256.973L281.098 262.857L278.214 276.271Z" fill="white"/>
<path d="M263.37 251.932L278.106 260.437L273.769 248.646C270.132 249.102 266.608 250.215 263.37 251.932Z" fill="#BA68C8"/>
<path d="M278.817 267.551V262.703L275.879 276.519V281.367L278.817 267.551Z" fill="#BA68C8"/>
<path opacity="0.55" d="M278.817 267.551V262.703L275.879 276.519V281.367L278.817 267.551Z" fill="black"/>
<path d="M297.612 241.113L294.404 242.969L297.612 244.824L300.821 242.969L297.612 241.113Z" fill="#BA68C8"/>
<path opacity="0.3" d="M297.612 241.113L294.404 242.969L297.612 244.824L300.821 242.969L297.612 241.113Z" fill="black"/>
<path d="M300.821 242.969V244.824L297.612 246.68V244.824L300.821 242.969Z" fill="#BA68C8"/>
<path opacity="0.4" d="M300.821 242.969V244.824L297.612 246.68V244.824L300.821 242.969Z" fill="black"/>
<path d="M297.612 244.824V246.68L294.404 244.824V242.969L297.612 244.824Z" fill="#BA68C8"/>
<path opacity="0.55" d="M297.612 244.824V246.68L294.404 244.824V242.969L297.612 244.824Z" fill="black"/>
<path d="M302.514 239.677L314.405 232.812C314.788 232.61 315.212 232.501 315.645 232.493C316.077 232.485 316.505 232.578 316.895 232.765C317.56 233.152 317.529 233.794 316.818 234.203L304.926 241.069C304.544 241.272 304.12 241.383 303.687 241.391C303.254 241.399 302.826 241.304 302.437 241.115C301.764 240.736 301.803 240.087 302.514 239.677Z" fill="#E0E0E0"/>
<path d="M304.841 245.299L301.633 247.147L304.841 249.002L308.058 247.147L304.841 245.299Z" fill="#BA68C8"/>
<path opacity="0.88" d="M304.841 245.299L301.633 247.147L304.841 249.002L308.058 247.147L304.841 245.299Z" fill="white"/>
<path d="M308.058 247.145V249L304.841 250.856V249L308.058 247.145Z" fill="#BA68C8"/>
<path opacity="0.75" d="M308.058 247.145V249L304.841 250.856V249L308.058 247.145Z" fill="white"/>
<path d="M304.841 249V250.856L301.633 249V247.145L304.841 249Z" fill="#BA68C8"/>
<path opacity="0.6" d="M304.841 249V250.856L301.633 249V247.145L304.841 249Z" fill="white"/>
<path d="M309.743 243.861L321.634 236.987C322.018 236.786 322.444 236.677 322.877 236.668C323.311 236.66 323.74 236.754 324.132 236.941C324.796 237.328 324.758 237.969 324.046 238.379L312.155 245.253C311.773 245.455 311.348 245.564 310.915 245.57C310.482 245.577 310.054 245.481 309.666 245.291C309.001 244.912 309.032 244.263 309.743 243.861Z" fill="#E0E0E0"/>
<path d="M312.078 249.465L308.87 251.32L312.078 253.176L315.287 251.32L312.078 249.465Z" fill="#BA68C8"/>
<path opacity="0.3" d="M312.078 249.465L308.87 251.32L312.078 253.176L315.287 251.32L312.078 249.465Z" fill="white"/>
<path d="M315.287 251.32V253.176L312.079 255.031V253.176L315.287 251.32Z" fill="#BA68C8"/>
<path d="M312.078 253.176V255.031L308.87 253.176V251.32L312.078 253.176Z" fill="#BA68C8"/>
<path opacity="0.1" d="M312.078 253.176V255.031L308.87 253.176V251.32L312.078 253.176Z" fill="black"/>
<path d="M316.981 248.033L328.872 241.159C329.254 240.958 329.679 240.848 330.111 240.84C330.543 240.832 330.972 240.926 331.361 241.113C332.026 241.499 331.988 242.141 331.284 242.551L319.385 249.417C319.003 249.619 318.578 249.728 318.145 249.734C317.712 249.741 317.284 249.646 316.895 249.455C316.231 249.084 316.269 248.442 316.981 248.033Z" fill="#E0E0E0"/>
<path d="M319.307 253.641L316.099 255.496L319.307 257.352L322.516 255.496L319.307 253.641Z" fill="#455A64"/>
<path d="M322.516 255.496V257.352L319.307 259.207V257.352L322.516 255.496Z" fill="#37474F"/>
<path d="M319.307 257.352V259.207L316.099 257.352V255.496L319.307 257.352Z" fill="#263238"/>
<path d="M324.209 252.211L336.101 245.338C336.483 245.136 336.908 245.027 337.341 245.02C337.773 245.013 338.201 245.109 338.59 245.299C339.255 245.678 339.224 246.32 338.513 246.729L326.622 253.603C326.239 253.804 325.815 253.914 325.382 253.922C324.95 253.93 324.522 253.836 324.132 253.649C323.467 253.286 323.498 252.621 324.209 252.211Z" fill="#E0E0E0"/>
<g opacity="0.3">
<path opacity="0.3" d="M266.879 232.342C266.817 232.342 266.756 232.326 266.701 232.295L243.8 219.074C243.747 219.042 243.703 218.996 243.672 218.942C243.641 218.888 243.624 218.827 243.623 218.765C243.623 218.703 243.64 218.643 243.671 218.59C243.702 218.537 243.747 218.494 243.8 218.463L272.407 201.933C272.46 201.903 272.52 201.887 272.581 201.887C272.642 201.887 272.702 201.903 272.755 201.933L295.664 215.154C295.717 215.186 295.761 215.231 295.791 215.286C295.821 215.34 295.836 215.402 295.834 215.464C295.835 215.524 295.82 215.585 295.79 215.638C295.76 215.691 295.717 215.735 295.664 215.765L267.057 232.295C267.003 232.326 266.941 232.342 266.879 232.342ZM244.682 218.765L266.879 231.584L294.806 215.464L272.593 202.645L244.682 218.765Z" fill="#BA68C8"/>
</g>
<path d="M266.879 228.682V126.293L249.7 116.373V218.762L266.879 228.682Z" fill="#BA68C8"/>
<path opacity="0.2" d="M266.879 228.682V126.293L249.7 116.373V218.762L266.879 228.682Z" fill="black"/>
<path d="M266.879 228.683L289.78 215.462L289.788 113.072L266.879 126.293V228.683Z" fill="#BA68C8"/>
<path d="M289.788 113.072L272.608 103.152L249.7 116.373L266.879 126.293L289.788 113.072Z" fill="#BA68C8"/>
<path opacity="0.25" d="M289.788 113.072L272.608 103.152L249.7 116.373L266.879 126.293L289.788 113.072Z" fill="white"/>
<path opacity="0.3" d="M289.788 113.072L266.647 125.829L259.132 121.631L249.7 116.374L258.978 121.925L266.578 126.456C266.392 129.038 266.346 218.206 266.377 220.781C266.397 223.422 266.567 226.061 266.887 228.683C267.205 226.06 267.372 223.422 267.39 220.781C267.39 218.284 267.39 129.2 267.204 126.703L289.788 113.072Z" fill="white"/>
<g opacity="0.3">
<path opacity="0.3" d="M223.93 257.152C223.868 257.151 223.807 257.136 223.753 257.106L200.852 243.885C200.798 243.852 200.754 243.807 200.723 243.753C200.692 243.699 200.675 243.638 200.674 243.575C200.674 243.514 200.691 243.454 200.722 243.401C200.753 243.348 200.798 243.304 200.852 243.274L229.458 226.744C229.513 226.713 229.574 226.697 229.636 226.697C229.699 226.697 229.76 226.713 229.814 226.744L252.715 239.965C252.77 239.995 252.816 240.039 252.848 240.093C252.88 240.146 252.896 240.208 252.896 240.27C252.896 240.333 252.88 240.394 252.848 240.448C252.816 240.501 252.77 240.546 252.715 240.576L224.108 257.106C224.054 257.136 223.993 257.152 223.93 257.152ZM201.733 243.575L223.93 256.379L251.857 240.259L229.66 227.44L201.733 243.575Z" fill="#BA68C8"/>
</g>
<path d="M223.93 253.479V180.748L206.75 170.828V243.559L223.93 253.479Z" fill="#BA68C8"/>
<path opacity="0.1" d="M223.93 253.479V180.748L206.75 170.828V243.559L223.93 253.479Z" fill="white"/>
<path d="M223.931 253.477L246.839 240.249V167.525L223.931 180.746V253.477Z" fill="#BA68C8"/>
<path opacity="0.3" d="M223.931 253.477L246.839 240.249V167.525L223.931 180.746V253.477Z" fill="white"/>
<path d="M246.839 167.527L229.659 157.607L206.75 170.828L223.93 180.748L246.839 167.527Z" fill="#BA68C8"/>
<path opacity="0.55" d="M246.839 167.527L229.659 157.607L206.75 170.828L223.93 180.748L246.839 167.527Z" fill="white"/>
<path opacity="0.3" d="M224.232 181.164L246.839 167.525L223.698 180.282C221.201 178.868 218.696 177.476 216.191 176.084L206.75 170.827L216.028 176.37C218.564 177.917 221.093 179.417 223.636 180.909C223.559 183.584 223.474 203.098 223.451 205.774C223.428 208.449 223.412 234.38 223.451 237.102C223.489 239.823 223.513 242.56 223.598 245.29C223.683 248.019 223.783 250.748 223.953 253.477C224.131 250.748 224.239 248.019 224.309 245.29C224.378 242.56 224.44 239.831 224.456 237.102C224.471 234.373 224.456 208.495 224.456 205.774C224.394 203.183 224.309 183.754 224.232 181.164Z" fill="white"/>
<g opacity="0.3">
<path opacity="0.3" d="M180.989 281.931C180.927 281.932 180.865 281.916 180.811 281.885L157.903 268.664C157.85 268.631 157.807 268.586 157.777 268.532C157.748 268.477 157.732 268.417 157.732 268.355C157.731 268.294 157.746 268.234 157.776 268.181C157.806 268.128 157.85 268.084 157.903 268.053L186.509 251.523C186.562 251.493 186.622 251.477 186.683 251.477C186.744 251.477 186.804 251.493 186.857 251.523L209.766 264.744C209.819 264.776 209.863 264.821 209.893 264.876C209.923 264.93 209.938 264.991 209.936 265.053C209.937 265.114 209.922 265.174 209.892 265.227C209.862 265.281 209.819 265.325 209.766 265.355L181.159 281.885C181.108 281.916 181.049 281.932 180.989 281.931ZM158.784 268.355L180.989 281.174L208.916 265.053L186.71 252.235L158.784 268.355Z" fill="#BA68C8"/>
</g>
<path d="M180.989 278.276L180.981 228.685L163.802 218.766L163.809 268.356L180.989 278.276Z" fill="#BA68C8"/>
<path opacity="0.45" d="M180.989 278.276L180.981 228.685L163.802 218.766L163.809 268.356L180.989 278.276Z" fill="black"/>
<path d="M180.989 278.272L203.89 265.044L203.898 215.461L180.981 228.682L180.989 278.272Z" fill="#BA68C8"/>
<path opacity="0.3" d="M180.989 278.272L203.89 265.044L203.898 215.461L180.981 228.682L180.989 278.272Z" fill="black"/>
<path d="M203.898 215.463L186.718 205.543L163.802 218.764L180.981 228.684L203.898 215.463Z" fill="#BA68C8"/>
<path opacity="0.15" d="M203.898 215.463L186.718 205.543L163.802 218.764L180.981 228.684L203.898 215.463Z" fill="black"/>
<path opacity="0.3" d="M203.898 215.461L180.757 228.21L173.242 224.02L163.802 218.762L173.08 224.306L180.68 228.844C180.502 230.391 180.456 271.832 180.487 273.401C180.503 275.037 180.674 276.668 180.997 278.272C181.313 276.668 181.481 275.037 181.499 273.401C181.499 271.909 181.499 230.576 181.329 229.084L203.898 215.461Z" fill="white"/>
<g opacity="0.3">
<path opacity="0.3" d="M309.821 207.545C309.761 207.544 309.702 207.528 309.65 207.498L286.742 194.277C286.688 194.245 286.643 194.2 286.612 194.146C286.581 194.092 286.565 194.03 286.564 193.968C286.564 193.906 286.581 193.846 286.612 193.793C286.643 193.74 286.688 193.697 286.742 193.666L315.349 177.136C315.403 177.106 315.464 177.09 315.526 177.09C315.589 177.09 315.65 177.106 315.704 177.136L338.605 190.357C338.66 190.387 338.706 190.431 338.738 190.485C338.77 190.539 338.786 190.6 338.786 190.663C338.786 190.725 338.77 190.787 338.738 190.84C338.706 190.894 338.66 190.938 338.605 190.968L309.998 207.498C309.944 207.529 309.883 207.545 309.821 207.545ZM287.623 193.968L309.821 206.787L337.747 190.659L315.55 177.84L287.623 193.968Z" fill="#BA68C8"/>
</g>
<path d="M309.821 203.888V54.9079L292.641 44.9883L292.649 193.968L309.821 203.888Z" fill="#BA68C8"/>
<path opacity="0.3" d="M309.821 203.888V54.9079L292.641 44.9883L292.649 193.968L309.821 203.888Z" fill="white"/>
<path d="M309.82 203.888L332.729 190.667V41.6875L309.82 54.9085V203.888Z" fill="#BA68C8"/>
<path opacity="0.55" d="M309.82 203.888L332.729 190.667V41.6875L309.82 54.9085V203.888Z" fill="white"/>
<path d="M332.729 41.6872L315.55 31.7676L292.641 44.9886L309.821 54.9082L332.729 41.6872Z" fill="#BA68C8"/>
<path opacity="0.75" d="M332.729 41.6872L315.55 31.7676L292.641 44.9886L309.821 54.9082L332.729 41.6872Z" fill="white"/>
<path opacity="0.3" d="M310.122 55.3572L332.729 41.7109L309.589 54.468C307.099 53.0532 304.586 51.6615 302.081 50.2698L292.641 45.0123L301.919 50.5636C304.455 52.1099 306.983 53.6021 309.535 55.0943C309.45 58.1251 309.365 61.1559 309.341 64.1866C309.318 67.2174 309.341 182.317 309.341 185.402C309.341 188.487 309.403 191.588 309.496 194.68C309.589 197.773 309.674 200.866 309.852 203.958C310.022 200.866 310.13 197.773 310.2 194.68C310.269 191.588 310.339 188.495 310.354 185.402C310.37 182.31 310.354 67.2715 310.354 64.1866C310.285 61.2254 310.207 58.2797 310.122 55.3572Z" fill="white"/>
<path d="M270.752 72.7069L251.508 83.8171C250.975 84.1646 250.532 84.6326 250.213 85.1833C249.895 85.734 249.711 86.352 249.676 86.9871V102.597C249.676 103.765 250.495 104.236 251.508 103.656L258.598 99.5509L260.5 102.837C260.583 102.985 260.707 103.106 260.858 103.184C261.008 103.263 261.178 103.296 261.347 103.28C261.516 103.263 261.676 103.198 261.809 103.092C261.941 102.986 262.04 102.843 262.093 102.682L264.327 96.2495L270.752 92.5461C271.286 92.1995 271.731 91.7319 272.051 91.1811C272.371 90.6303 272.556 90.012 272.592 89.3761V73.7661C272.592 72.5986 271.765 72.127 270.752 72.7069Z" fill="#FAFAFA"/>
<path d="M250.689 104.321C250.449 104.322 250.214 104.258 250.008 104.135C249.75 103.973 249.541 103.743 249.405 103.47C249.269 103.198 249.21 102.893 249.235 102.589V86.9865C249.27 86.2795 249.472 85.591 249.826 84.9778C250.179 84.3647 250.674 83.8447 251.269 83.4609L270.543 72.3661C270.791 72.1949 271.08 72.0926 271.38 72.0695C271.68 72.0464 271.981 72.1034 272.252 72.2347C272.509 72.3986 272.716 72.6289 272.852 72.9011C272.988 73.1734 273.048 73.4774 273.025 73.781V89.3756C272.991 90.0835 272.788 90.773 272.433 91.3864C272.078 91.9998 271.581 92.5192 270.984 92.9012L264.698 96.5273L262.518 102.821C262.436 103.056 262.288 103.263 262.092 103.416C261.896 103.57 261.66 103.664 261.412 103.687C261.166 103.707 260.918 103.658 260.698 103.544C260.478 103.431 260.294 103.258 260.168 103.045L258.482 100.115L251.748 103.981C251.432 104.186 251.066 104.304 250.689 104.321ZM271.564 72.8686C271.348 72.882 271.138 72.9484 270.953 73.0619L251.717 84.1722C251.247 84.4841 250.855 84.9003 250.572 85.3884C250.289 85.8766 250.123 86.4235 250.086 86.9865V102.597C250.067 102.751 250.088 102.908 250.146 103.053C250.204 103.197 250.298 103.325 250.418 103.424C250.563 103.48 250.721 103.498 250.875 103.477C251.029 103.455 251.175 103.394 251.3 103.3L258.753 98.9937L260.856 102.635C260.9 102.713 260.966 102.776 261.046 102.818C261.125 102.859 261.215 102.876 261.304 102.867C261.395 102.859 261.481 102.824 261.552 102.768C261.623 102.712 261.677 102.636 261.706 102.55L263.987 95.9629L270.543 92.1899C271.013 91.8776 271.403 91.4611 271.685 90.9729C271.967 90.4847 272.132 89.9381 272.167 89.3756V73.7655C272.187 73.6114 272.168 73.4547 272.111 73.3101C272.054 73.1654 271.962 73.0375 271.842 72.9382C271.758 72.8901 271.661 72.866 271.564 72.8686Z" fill="#E0E0E0"/>
<path d="M253.975 97.6254C253.912 97.6257 253.851 97.6093 253.796 97.5781C253.742 97.5469 253.697 97.5019 253.666 97.4476C253.642 97.4076 253.627 97.3634 253.621 97.3175C253.615 97.2716 253.618 97.225 253.631 97.1803C253.643 97.1357 253.664 97.0939 253.692 97.0575C253.721 97.0211 253.757 96.9908 253.797 96.9683L268.108 88.7032C268.148 88.6733 268.194 88.6522 268.243 88.6413C268.292 88.6304 268.343 88.63 268.392 88.64C268.441 88.6501 268.487 88.6704 268.528 88.6996C268.569 88.7288 268.603 88.7662 268.628 88.8095C268.653 88.8528 268.669 88.9009 268.674 88.9507C268.679 89.0005 268.674 89.0508 268.659 89.0985C268.643 89.1461 268.618 89.1899 268.584 89.227C268.551 89.2642 268.51 89.2938 268.464 89.314L254.145 97.579C254.093 97.6085 254.035 97.6245 253.975 97.6254Z" fill="#E0E0E0"/>
<path d="M253.975 94.3189C253.912 94.3192 253.851 94.3028 253.796 94.2716C253.742 94.2404 253.697 94.1954 253.666 94.1411C253.642 94.1011 253.627 94.0569 253.621 94.011C253.615 93.9651 253.618 93.9185 253.631 93.8738C253.643 93.8292 253.664 93.7874 253.692 93.751C253.721 93.7146 253.757 93.6843 253.797 93.6618L268.108 85.3967C268.191 85.3513 268.287 85.3396 268.378 85.3641C268.469 85.3886 268.547 85.4474 268.595 85.5281C268.64 85.6094 268.652 85.705 268.627 85.7946C268.603 85.8842 268.544 85.9606 268.464 86.0075L254.145 94.2726C254.093 94.3021 254.035 94.318 253.975 94.3189Z" fill="#E0E0E0"/>
<path d="M253.975 91.0161C253.912 91.0163 253.851 91 253.796 90.9687C253.742 90.9375 253.697 90.8925 253.666 90.8382C253.642 90.7982 253.627 90.754 253.621 90.7081C253.615 90.6622 253.618 90.6156 253.631 90.5709C253.643 90.5263 253.664 90.4845 253.692 90.4481C253.721 90.4117 253.757 90.3814 253.797 90.3589L268.108 82.0938C268.148 82.0639 268.194 82.0428 268.243 82.0319C268.292 82.0211 268.343 82.0206 268.392 82.0307C268.441 82.0407 268.487 82.061 268.528 82.0902C268.569 82.1194 268.603 82.1569 268.628 82.2001C268.653 82.2434 268.669 82.2915 268.674 82.3413C268.679 82.3911 268.674 82.4415 268.659 82.4891C268.643 82.5367 268.618 82.5805 268.584 82.6177C268.551 82.6548 268.51 82.6844 268.464 82.7046L254.145 90.9697C254.093 90.9992 254.035 91.0151 253.975 91.0161Z" fill="#E0E0E0"/>
<path d="M253.975 87.7057C253.913 87.7059 253.852 87.6904 253.798 87.6607C253.744 87.6309 253.698 87.5879 253.666 87.5356C253.642 87.495 253.627 87.4502 253.621 87.4037C253.615 87.3572 253.618 87.3099 253.63 87.2647C253.642 87.2194 253.663 87.177 253.692 87.1399C253.721 87.1028 253.756 87.0717 253.797 87.0485L268.108 78.7834C268.191 78.738 268.287 78.7263 268.378 78.7508C268.469 78.7753 268.547 78.8341 268.595 78.9149C268.64 78.9961 268.652 79.0917 268.627 79.1813C268.603 79.2709 268.544 79.3473 268.464 79.3942L254.145 87.6593C254.093 87.6888 254.035 87.7047 253.975 87.7057Z" fill="#BA68C8"/>
<path d="M227.827 127.151L208.583 138.262C208.049 138.608 207.605 139.076 207.287 139.627C206.968 140.178 206.784 140.796 206.75 141.432V157.034C206.75 158.201 207.57 158.681 208.583 158.093L215.673 153.995L217.575 157.281C217.66 157.426 217.785 157.544 217.934 157.621C218.084 157.697 218.253 157.729 218.421 157.713C218.588 157.697 218.747 157.633 218.88 157.529C219.012 157.425 219.112 157.286 219.167 157.127L221.402 150.686L227.827 146.983C228.36 146.636 228.805 146.168 229.123 145.618C229.442 145.067 229.625 144.448 229.659 143.813V128.203C229.659 127.035 228.84 126.564 227.827 127.151Z" fill="#FAFAFA"/>
<path d="M207.763 158.759C207.525 158.76 207.291 158.699 207.083 158.581C206.827 158.417 206.619 158.187 206.483 157.915C206.347 157.643 206.287 157.339 206.31 157.035V141.433C206.344 140.725 206.547 140.035 206.9 139.421C207.254 138.806 207.748 138.285 208.343 137.899L227.587 126.789C227.829 126.612 228.117 126.509 228.417 126.493C228.716 126.476 229.014 126.547 229.274 126.697C229.534 126.847 229.744 127.07 229.88 127.337C230.016 127.605 230.071 127.906 230.038 128.204V143.814C230.005 144.522 229.802 145.212 229.447 145.825C229.092 146.439 228.594 146.958 227.997 147.34L221.711 150.966L219.531 157.259C219.451 157.495 219.303 157.703 219.107 157.857C218.911 158.011 218.674 158.104 218.425 158.125C218.178 158.151 217.928 158.104 217.707 157.99C217.486 157.876 217.303 157.7 217.18 157.483L215.495 154.553L208.761 158.419C208.464 158.618 208.12 158.735 207.763 158.759ZM228.028 127.508L208.792 138.618C208.32 138.929 207.927 139.345 207.644 139.833C207.361 140.322 207.196 140.869 207.16 141.433V157.035C207.111 157.191 207.117 157.359 207.176 157.511C207.235 157.663 207.345 157.79 207.486 157.872C207.627 157.954 207.792 157.986 207.954 157.961C208.115 157.937 208.263 157.858 208.374 157.739L215.827 153.432L217.93 157.074C217.972 157.154 218.038 157.219 218.118 157.26C218.198 157.302 218.289 157.318 218.379 157.306C218.47 157.3 218.558 157.267 218.63 157.21C218.701 157.153 218.754 157.076 218.781 156.989L221.1 150.409L227.657 146.628C228.126 146.316 228.517 145.9 228.799 145.412C229.081 144.924 229.246 144.377 229.28 143.814V128.204C229.3 128.05 229.28 127.893 229.224 127.749C229.167 127.604 229.075 127.476 228.956 127.377C228.809 127.32 228.65 127.302 228.494 127.325C228.338 127.348 228.191 127.411 228.067 127.508H228.028Z" fill="#E0E0E0"/>
<path d="M211.05 152.063C210.987 152.063 210.925 152.047 210.871 152.016C210.817 151.984 210.772 151.939 210.74 151.885C210.717 151.845 210.702 151.801 210.696 151.755C210.69 151.709 210.693 151.662 210.705 151.618C210.718 151.573 210.739 151.531 210.767 151.495C210.796 151.459 210.831 151.428 210.872 151.406L225.183 143.141C225.223 143.111 225.269 143.09 225.318 143.079C225.367 143.068 225.417 143.067 225.467 143.078C225.516 143.088 225.562 143.108 225.603 143.137C225.643 143.166 225.677 143.204 225.703 143.247C225.728 143.29 225.744 143.338 225.749 143.388C225.754 143.438 225.749 143.488 225.733 143.536C225.718 143.584 225.693 143.627 225.659 143.665C225.625 143.702 225.584 143.731 225.539 143.751L211.22 152.001C211.169 152.036 211.111 152.057 211.05 152.063Z" fill="#BA68C8"/>
<path d="M211.05 148.762C210.987 148.762 210.925 148.746 210.871 148.715C210.817 148.684 210.772 148.639 210.74 148.584C210.717 148.544 210.702 148.5 210.696 148.454C210.69 148.408 210.693 148.362 210.705 148.317C210.718 148.272 210.739 148.231 210.767 148.194C210.796 148.158 210.831 148.127 210.872 148.105L225.183 139.84C225.223 139.81 225.269 139.789 225.318 139.778C225.367 139.767 225.417 139.767 225.467 139.777C225.516 139.787 225.562 139.807 225.603 139.836C225.643 139.865 225.677 139.903 225.703 139.946C225.728 139.989 225.744 140.038 225.749 140.087C225.754 140.137 225.749 140.188 225.733 140.235C225.718 140.283 225.693 140.327 225.659 140.364C225.625 140.401 225.584 140.431 225.539 140.451L211.22 148.716C211.168 148.745 211.109 148.761 211.05 148.762Z" fill="#E0E0E0"/>
<path d="M211.05 145.453C210.987 145.453 210.925 145.437 210.871 145.405C210.817 145.374 210.772 145.329 210.74 145.275C210.717 145.235 210.702 145.191 210.696 145.145C210.69 145.099 210.693 145.052 210.705 145.008C210.718 144.963 210.739 144.921 210.767 144.885C210.796 144.848 210.831 144.818 210.872 144.795L225.183 136.538C225.223 136.515 225.268 136.499 225.315 136.493C225.361 136.487 225.408 136.49 225.454 136.503C225.499 136.515 225.541 136.536 225.579 136.564C225.616 136.593 225.647 136.629 225.67 136.67C225.715 136.751 225.726 136.846 225.702 136.936C225.677 137.026 225.619 137.102 225.539 137.149L211.22 145.414C211.167 145.441 211.109 145.454 211.05 145.453Z" fill="#E0E0E0"/>
<path d="M211.05 142.151C210.987 142.151 210.925 142.135 210.871 142.103C210.817 142.072 210.772 142.027 210.74 141.973C210.717 141.933 210.702 141.889 210.696 141.843C210.69 141.797 210.693 141.75 210.705 141.706C210.718 141.661 210.739 141.619 210.767 141.583C210.796 141.546 210.831 141.516 210.872 141.494L225.183 133.229C225.223 133.199 225.269 133.178 225.318 133.167C225.367 133.156 225.417 133.155 225.467 133.165C225.516 133.175 225.562 133.196 225.603 133.225C225.643 133.254 225.677 133.292 225.703 133.335C225.728 133.378 225.744 133.426 225.749 133.476C225.754 133.526 225.749 133.576 225.733 133.624C225.718 133.671 225.693 133.715 225.659 133.752C225.625 133.79 225.584 133.819 225.539 133.839L211.22 142.104C211.168 142.134 211.109 142.15 211.05 142.151Z" fill="#E0E0E0"/>
<path d="M184.893 175.081L165.649 186.191C165.116 186.538 164.671 187.006 164.353 187.556C164.034 188.107 163.851 188.726 163.817 189.361V204.964C163.817 206.131 164.636 206.61 165.649 206.023L172.739 201.925L174.641 205.211C174.727 205.356 174.853 205.473 175.003 205.549C175.154 205.625 175.323 205.657 175.49 205.641C175.658 205.624 175.818 205.561 175.951 205.457C176.084 205.354 176.185 205.215 176.242 205.056L178.468 198.616L184.893 194.912C185.427 194.566 185.871 194.098 186.19 193.547C186.508 192.996 186.692 192.378 186.726 191.743V176.132C186.726 174.965 185.906 174.493 184.893 175.081Z" fill="#FAFAFA"/>
<path d="M164.83 206.689C164.592 206.688 164.357 206.627 164.149 206.511C163.893 206.347 163.686 206.117 163.55 205.845C163.413 205.572 163.354 205.268 163.376 204.965V189.362C163.41 188.653 163.613 187.963 163.968 187.348C164.323 186.734 164.82 186.213 165.417 185.829L184.654 174.719C184.896 174.542 185.184 174.438 185.483 174.422C185.783 174.406 186.081 174.477 186.34 174.627C186.6 174.777 186.811 174.999 186.946 175.267C187.082 175.534 187.137 175.835 187.105 176.134V191.744C187.071 192.451 186.87 193.14 186.516 193.753C186.162 194.367 185.667 194.886 185.071 195.269L178.778 198.895L176.597 205.189C176.514 205.418 176.367 205.619 176.175 205.768C175.982 205.917 175.751 206.009 175.508 206.032C175.266 206.056 175.021 206.01 174.804 205.901C174.586 205.791 174.404 205.622 174.278 205.413L172.585 202.483L165.85 206.349C165.547 206.551 165.194 206.669 164.83 206.689ZM185.102 175.438L165.897 186.548C165.426 186.859 165.035 187.275 164.753 187.764C164.471 188.252 164.307 188.799 164.273 189.362V204.965C164.253 205.12 164.272 205.278 164.329 205.424C164.386 205.569 164.478 205.699 164.598 205.8C164.746 205.852 164.904 205.868 165.059 205.845C165.214 205.822 165.361 205.761 165.487 205.668L172.933 201.362L175.036 205.003C175.081 205.08 175.148 205.143 175.228 205.183C175.309 205.224 175.399 205.241 175.488 205.232C175.577 205.223 175.662 205.188 175.733 205.133C175.803 205.077 175.856 205.003 175.886 204.918L178.167 198.339L184.685 194.527C185.155 194.216 185.547 193.8 185.83 193.311C186.113 192.823 186.28 192.276 186.316 191.713V176.134C186.334 175.979 186.314 175.822 186.256 175.677C186.197 175.533 186.104 175.405 185.983 175.306C185.838 175.25 185.68 175.232 185.525 175.255C185.371 175.278 185.225 175.341 185.102 175.438Z" fill="#E0E0E0"/>
<path d="M168.115 199.994C168.036 199.998 167.957 199.975 167.892 199.928C167.828 199.882 167.781 199.814 167.76 199.737C167.739 199.66 167.746 199.578 167.778 199.505C167.81 199.432 167.867 199.373 167.938 199.337L182.257 191.071C182.338 191.025 182.434 191.013 182.523 191.038C182.568 191.05 182.61 191.071 182.646 191.099C182.683 191.128 182.713 191.163 182.736 191.203C182.759 191.243 182.773 191.287 182.779 191.333C182.785 191.379 182.782 191.425 182.769 191.47C182.757 191.514 182.736 191.556 182.708 191.592C182.68 191.629 182.645 191.659 182.604 191.682L168.293 199.94C168.239 199.972 168.178 199.991 168.115 199.994Z" fill="#E0E0E0"/>
<path d="M168.116 196.692C168.053 196.692 167.991 196.676 167.937 196.645C167.883 196.614 167.838 196.569 167.806 196.514C167.761 196.433 167.75 196.338 167.774 196.248C167.799 196.158 167.858 196.082 167.938 196.035L182.257 187.77C182.296 187.746 182.34 187.731 182.386 187.724C182.431 187.718 182.478 187.72 182.522 187.732C182.567 187.743 182.609 187.763 182.645 187.791C182.682 187.819 182.713 187.854 182.736 187.894C182.781 187.976 182.793 188.073 182.769 188.164C182.744 188.255 182.685 188.332 182.605 188.381L168.293 196.646C168.239 196.676 168.178 196.692 168.116 196.692Z" fill="#E0E0E0"/>
<path d="M168.115 193.384C168.036 193.389 167.957 193.366 167.892 193.319C167.828 193.273 167.781 193.205 167.76 193.128C167.739 193.051 167.746 192.969 167.778 192.896C167.81 192.823 167.867 192.764 167.938 192.727L182.257 184.478C182.297 184.455 182.341 184.44 182.387 184.434C182.432 184.429 182.479 184.432 182.523 184.444C182.568 184.456 182.61 184.477 182.646 184.506C182.683 184.534 182.713 184.569 182.736 184.609C182.759 184.649 182.773 184.693 182.779 184.739C182.785 184.785 182.782 184.832 182.769 184.876C182.757 184.921 182.736 184.962 182.708 184.999C182.68 185.035 182.645 185.066 182.604 185.089L168.293 193.338C168.239 193.368 168.178 193.384 168.115 193.384Z" fill="#BA68C8"/>
<path d="M168.116 190.08C168.053 190.08 167.991 190.064 167.937 190.033C167.883 190.002 167.838 189.957 167.806 189.902C167.761 189.821 167.75 189.725 167.774 189.636C167.799 189.546 167.858 189.47 167.938 189.423L182.257 181.158C182.337 181.112 182.432 181.1 182.521 181.123C182.611 181.146 182.688 181.203 182.736 181.282C182.781 181.364 182.793 181.461 182.769 181.552C182.744 181.642 182.685 181.72 182.605 181.769L168.293 190.034C168.239 190.064 168.178 190.079 168.116 190.08Z" fill="#E0E0E0"/>
<path d="M313.717 1.31415L294.473 12.4244C293.939 12.7709 293.495 13.2387 293.177 13.7897C292.858 14.3406 292.675 14.959 292.641 15.5944V31.2044C292.641 32.3719 293.46 32.8435 294.473 32.2559L301.563 28.1582L303.465 31.4441C303.549 31.5917 303.674 31.7117 303.825 31.7898C303.976 31.868 304.146 31.9008 304.315 31.8845C304.484 31.8682 304.645 31.8033 304.778 31.6978C304.911 31.5922 305.011 31.4504 305.065 31.2895L307.292 24.8491L313.717 21.1457C314.251 20.7991 314.695 20.3313 315.013 19.7804C315.332 19.2295 315.515 18.6111 315.549 17.9757V2.37338C315.549 1.23683 314.73 0.726548 313.717 1.31415Z" fill="#FAFAFA"/>
<path d="M293.653 32.9367C293.415 32.9363 293.181 32.8751 292.973 32.7589C292.716 32.5956 292.508 32.3654 292.372 32.093C292.236 31.8206 292.176 31.5162 292.2 31.2126V15.5948C292.232 14.8853 292.434 14.194 292.789 13.5791C293.145 12.9642 293.643 12.4437 294.241 12.0614L313.477 0.951149C313.719 0.773926 314.007 0.6709 314.307 0.654623C314.606 0.638346 314.904 0.709519 315.164 0.859474C315.424 1.00943 315.634 1.23169 315.77 1.49919C315.906 1.76668 315.961 2.06785 315.928 2.36603V17.9761C315.894 18.6841 315.691 19.3738 315.338 19.9881C314.984 20.6025 314.49 21.124 313.895 21.5094L307.601 25.1278L305.452 31.3904C305.373 31.6259 305.227 31.8333 305.032 31.9872C304.837 32.141 304.601 32.2345 304.354 32.2563C304.106 32.2845 303.856 32.2385 303.634 32.1243C303.413 32.0101 303.23 31.8327 303.109 31.6146L301.416 28.6921L294.682 32.5579C294.38 32.7755 294.024 32.9065 293.653 32.9367ZM313.926 1.68565L294.682 12.7805C294.212 13.0923 293.821 13.5087 293.539 13.997C293.258 14.4852 293.093 15.0321 293.058 15.5948V31.2048C293.012 31.36 293.02 31.5261 293.08 31.6763C293.141 31.8265 293.25 31.9519 293.39 32.0324C293.53 32.1129 293.694 32.1437 293.854 32.1198C294.014 32.0958 294.161 32.0187 294.272 31.9007L301.717 27.5942L303.82 31.2358C303.862 31.3157 303.928 31.3808 304.008 31.4223C304.088 31.4638 304.179 31.4796 304.269 31.4677C304.359 31.4628 304.446 31.4306 304.518 31.3754C304.59 31.3202 304.643 31.2445 304.671 31.1584L306.952 24.5711L313.508 20.7904C313.974 20.4764 314.362 20.0592 314.641 19.5711C314.92 19.0831 315.083 18.5372 315.116 17.9761V2.37376C315.165 2.21797 315.16 2.05018 315.1 1.89799C315.041 1.7458 314.932 1.61828 314.791 1.53639C314.65 1.45451 314.485 1.42315 314.323 1.44747C314.162 1.47178 314.013 1.55033 313.902 1.67019L313.926 1.68565Z" fill="#E0E0E0"/>
<path d="M302.939 22.8859C302.94 22.4181 303.047 21.9566 303.251 21.5361C303.456 21.1156 303.754 20.747 304.122 20.4582C304.748 20.1025 305.251 20.6283 305.251 21.5483C305.264 22.0195 305.168 22.4873 304.973 22.9161C304.777 23.3449 304.486 23.7233 304.122 24.0224C303.457 24.4322 302.939 23.8755 302.939 22.8859ZM303.078 10.9329L305.173 9.74219L304.756 18.6954L303.496 19.4221L303.078 10.9329Z" fill="#BA68C8"/>
</g>
</svg>
