<svg width="546" height="380" viewBox="0 0 546 380" fill="none" xmlns="http://www.w3.org/2000/svg">
<g style="mix-blend-mode:luminosity">
<path d="M460.411 286.947L454.596 374.779C454.563 375.225 454.364 375.643 454.037 375.949C453.71 376.255 453.279 376.426 452.832 376.428C452.596 376.428 452.363 376.38 452.147 376.288C451.93 376.197 451.734 376.062 451.57 375.892C451.407 375.723 451.279 375.522 451.195 375.302C451.111 375.083 451.072 374.848 451.081 374.613L453.471 286.947H460.411Z" fill="#263238" stroke="#263238" stroke-width="0.43541" stroke-linecap="round" stroke-linejoin="round"/>
<path d="M475.289 286.947L481.104 374.779C481.133 375.224 481.33 375.642 481.655 375.948C481.98 376.254 482.409 376.425 482.855 376.428C483.091 376.428 483.325 376.38 483.542 376.289C483.759 376.197 483.956 376.062 484.121 375.893C484.285 375.724 484.414 375.523 484.499 375.303C484.585 375.083 484.626 374.849 484.619 374.613L482.203 286.998L475.289 286.947Z" fill="#263238" stroke="#263238" stroke-width="0.43541" stroke-linecap="round" stroke-linejoin="round"/>
<path d="M416.981 286.947L422.797 374.779C422.826 375.224 423.023 375.642 423.348 375.948C423.673 376.254 424.102 376.425 424.548 376.428C424.784 376.428 425.017 376.38 425.235 376.289C425.452 376.197 425.649 376.062 425.813 375.893C425.978 375.724 426.107 375.523 426.192 375.303C426.278 375.083 426.318 374.849 426.312 374.613L423.883 286.998L416.981 286.947Z" fill="#263238" stroke="#263238" stroke-width="0.43541" stroke-linecap="round" stroke-linejoin="round"/>
<path d="M393.221 286.947L387.406 374.779C387.374 375.225 387.174 375.643 386.847 375.949C386.52 376.255 386.09 376.426 385.642 376.428C385.407 376.426 385.174 376.378 384.957 376.285C384.741 376.193 384.545 376.058 384.38 375.889C384.216 375.72 384.087 375.521 384.001 375.301C383.915 375.082 383.873 374.848 383.878 374.613L386.307 286.998L393.221 286.947Z" fill="#263238" stroke="#263238" stroke-width="0.43541" stroke-linecap="round" stroke-linejoin="round"/>
<path d="M494.537 198.401C494.537 198.401 436.511 196.229 431.603 196.229C426.695 196.229 425.558 198.401 425.558 198.401L417.276 256.798C417.276 256.798 391.522 249.449 386.473 250.408C381.425 251.366 388.966 288.009 388.966 288.009H418.107L418.631 285.811H484.428L501.899 202.581C500.838 198.772 494.537 198.401 494.537 198.401Z" fill="white" stroke="#263238" stroke-width="0.43541" stroke-linecap="round" stroke-linejoin="round"/>
<path d="M472.452 234.93C472.452 234.93 478.357 273.273 471.583 277.746C470.535 278.436 464.847 281.708 459.53 281.172C455.261 280.737 425.098 281.172 425.098 281.172C425.098 281.172 420.906 273.196 420.062 267.317C419.219 261.438 425.814 236.208 425.814 236.208L472.452 234.93Z" fill="white" stroke="#263238" stroke-width="0.43541" stroke-linecap="round" stroke-linejoin="round"/>
<path d="M423.052 255.471C423.052 255.471 379.392 260.008 377.334 261.235C375.277 262.462 365.832 270.706 367.455 276.061C369.078 281.416 364.988 281.825 368.733 282.656C372.478 283.487 425.558 283.474 425.558 283.474" fill="#92E3A9"/>
<path d="M423.052 255.471C423.052 255.471 379.392 260.008 377.334 261.235C375.277 262.462 365.832 270.706 367.455 276.061C369.078 281.416 364.988 281.825 368.733 282.656C372.478 283.487 425.558 283.474 425.558 283.474" stroke="#263238" stroke-width="0.43541" stroke-linecap="round" stroke-linejoin="round"/>
<path d="M383.342 287.941H487.086V280.196H383.342V287.941Z" fill="white" stroke="#263238" stroke-width="0.43541" stroke-linecap="round" stroke-linejoin="round"/>
<path d="M462.585 257.119H400.085C400.085 257.119 396.801 260.826 396.379 268.622C395.957 276.419 396.801 278.093 402.565 280.125C408.329 282.157 459.53 281.122 459.53 281.122" fill="#92E3A9"/>
<path d="M462.585 257.119H400.085C400.085 257.119 396.801 260.826 396.379 268.622C395.957 276.419 396.801 278.093 402.565 280.125C408.329 282.157 459.53 281.122 459.53 281.122" stroke="#263238" stroke-width="0.43541" stroke-linecap="round" stroke-linejoin="round"/>
<path d="M413.339 356.298L406.795 340.795L396.072 342.827L404.277 356.656L399.548 366.127L389.323 372.812C389.323 372.812 388.135 373.987 393.247 373.591C398.36 373.195 408.968 373.591 408.968 373.591L415.652 365.731C415.652 365.731 418.081 361.73 413.339 356.298Z" fill="white" stroke="#263238" stroke-width="0.43541" stroke-linecap="round" stroke-linejoin="round"/>
<path d="M416.201 363.072L416.47 373.208H414.872L412.738 368.146L416.201 363.072Z" fill="#263238" stroke="#263238" stroke-width="0.43541" stroke-linecap="round" stroke-linejoin="round"/>
<path d="M408.98 373.642L415.665 365.781C415.665 365.781 417.39 362.854 415.013 358.637C410.258 366.765 403.932 369.207 403.932 369.207L397.337 367.622L389.336 372.862C389.336 372.862 388.147 374.038 393.259 373.642C398.372 373.245 408.98 373.642 408.98 373.642Z" fill="#263238" stroke="#263238" stroke-width="0.43541" stroke-linecap="round" stroke-linejoin="round"/>
<path d="M387.636 277.295L409.555 343.565L394.001 346.326L363.326 277.308C363.326 277.308 360.86 267.006 367.442 263.722C374.024 260.437 393.387 258.775 393.387 258.775" fill="#92E3A9"/>
<path d="M387.636 277.295L409.555 343.565L394.001 346.326L363.326 277.308C363.326 277.308 360.86 267.006 367.442 263.722C374.024 260.437 393.387 258.775 393.387 258.775" stroke="#263238" stroke-width="0.43541" stroke-linecap="round" stroke-linejoin="round"/>
<path d="M457.945 287.929C457.945 287.929 450.391 251.235 455.452 250.327C460.514 249.42 486.255 256.718 486.255 256.718L494.537 198.398C494.537 198.398 503.279 197.017 504.199 204.788C505.12 212.559 487.086 287.929 487.086 287.929H457.945Z" fill="#263238" stroke="#263238" stroke-width="0.43541" stroke-linecap="round" stroke-linejoin="round"/>
<path d="M369.001 179.894L365.103 173.504C364.727 172.892 364.198 172.388 363.569 172.043C362.939 171.698 362.23 171.523 361.512 171.536L357.843 171.599L351.568 169.721C351.169 169.604 350.745 169.609 350.349 169.734C349.953 169.859 349.603 170.099 349.344 170.424L349.114 170.718L354.891 173.274L349.127 175.395L343.005 172.29C342.763 172.166 342.486 172.131 342.222 172.192C341.957 172.253 341.723 172.405 341.56 172.622C341.374 172.863 341.292 173.168 341.33 173.469C341.368 173.771 341.525 174.045 341.765 174.232L350.328 180.84C350.597 181.049 350.906 181.198 351.237 181.277C351.568 181.356 351.911 181.364 352.245 181.3L361.716 179.396L364.362 182.284L369.001 179.894Z" fill="white" stroke="#263238" stroke-width="0.43541" stroke-linecap="round" stroke-linejoin="round"/>
<path d="M435.028 166.781L399.919 203.501L366.407 176.418L361.78 179.78L398.653 221.561L430.619 204.345L435.028 166.781Z" fill="white" stroke="#263238" stroke-width="0.43541" stroke-linecap="round" stroke-linejoin="round"/>
<path d="M487.559 176.16L505.963 232.716L490.089 233.177L474.305 206.63C474.305 206.63 483.175 179.854 487.559 176.16Z" fill="white" stroke="#263238" stroke-width="0.43541" stroke-linecap="round" stroke-linejoin="round"/>
<path d="M467.53 166.447L487.558 176.225L470.789 223.119L472.77 236.194L425.812 236.27L431.411 215.207L427.576 201.71C427.079 199.959 427.052 198.107 427.5 196.342L435.015 166.844L454.749 163.674L467.53 166.447Z" fill="white" stroke="#263238" stroke-width="0.43541" stroke-linecap="round" stroke-linejoin="round"/>
<path d="M466.572 163.7C466.572 163.7 470.508 166.359 470.636 168.723C470.7 170.116 470.636 172.557 470.508 174.423C470.438 175.881 470.105 177.315 469.524 178.654L462.431 187.217L454.225 180.737L447.413 184.214C447.413 184.214 446.135 173.772 449.113 166.486C452.091 159.201 465.051 161.872 466.572 163.7Z" fill="white" stroke="#263238" stroke-width="0.43541" stroke-linecap="round" stroke-linejoin="round"/>
<path d="M472.208 143.441C472.208 143.441 470.598 149.231 469.844 153.065C469.089 156.9 467.569 164.568 467.709 167.444C467.85 170.32 455.746 182.564 454.225 180.736C452.704 178.909 451.106 168.288 451.106 168.288L452.615 151.11C452.615 151.11 468.386 133.638 472.208 143.441Z" fill="white" stroke="#263238" stroke-width="0.43541" stroke-linecap="round" stroke-linejoin="round"/>
<path d="M446.915 134.497C446.915 134.497 444.755 138.063 444.755 139.61C444.755 141.156 445.509 144.185 445.381 145.067C445.253 145.949 443.106 148.901 442.825 149.898C442.683 150.304 442.695 150.747 442.857 151.145C443.02 151.543 443.322 151.868 443.707 152.058C444.228 152.326 444.736 152.62 445.227 152.94C445.227 152.94 445.867 160.813 446.889 162.846C447.912 164.878 448.793 165.773 451.835 166.028C454.877 166.284 462.124 163.101 463.134 160.558C464.143 158.014 464.284 154.972 464.412 151.292C464.54 147.611 461.996 142.345 460.092 137.322C458.187 132.299 450.212 129.538 446.915 134.497Z" fill="white" stroke="#263238" stroke-width="0.43541" stroke-linecap="round" stroke-linejoin="round"/>
<path d="M479.698 160.494C485.084 160.494 489.45 156.128 489.45 150.742C489.45 145.356 485.084 140.99 479.698 140.99C474.312 140.99 469.946 145.356 469.946 150.742C469.946 156.128 474.312 160.494 479.698 160.494Z" fill="#263238" stroke="#263238" stroke-width="0.43541" stroke-linecap="round" stroke-linejoin="round"/>
<path d="M446.864 133.946C446.864 133.946 450.788 130.559 457.843 137.294C464.898 144.03 462.214 153.769 466.93 155.789C471.646 157.808 480.376 147.711 481.385 142.675C482.395 137.64 479.366 127.197 469.946 125.178C460.527 123.159 448.985 124.539 446.864 133.946Z" fill="#263238" stroke="#263238" stroke-width="0.43541" stroke-linecap="round" stroke-linejoin="round"/>
<path d="M446.863 133.944C446.78 133.152 446.878 132.352 447.15 131.603C447.422 130.855 447.862 130.178 448.435 129.625C449.008 129.072 449.699 128.656 450.457 128.41C451.214 128.164 452.018 128.094 452.807 128.206C459.197 128.551 459.862 138.635 463.223 142.674C466.585 146.713 468.272 146.035 468.272 146.035C468.272 146.035 462.559 147.71 458.852 145.69C455.146 143.671 453.356 132.283 446.863 133.944Z" fill="#263238" stroke="#263238" stroke-width="0.43541" stroke-linecap="round" stroke-linejoin="round"/>
<path d="M457.305 127.035C460.668 129.112 463.337 132.142 464.974 135.739C467.875 141.887 467.875 146.961 474.764 146.603C474.764 146.603 471.505 147.332 466.431 144.788C461.357 142.245 460.271 135.011 457.011 132.109C455.234 130.426 452.933 129.403 450.493 129.208" stroke="white" stroke-width="0.217705" stroke-linecap="round" stroke-linejoin="round"/>
<path d="M481.385 142.674C481.385 142.674 481.091 151.902 474.011 153.844" stroke="white" stroke-width="0.217705" stroke-linecap="round" stroke-linejoin="round"/>
<path d="M461.626 152.093C461.626 152.093 468.374 143.261 469.959 149.856C471.544 156.451 466.125 158.061 463.568 157.307C461.012 156.553 461.37 155.186 461.37 155.186" fill="white"/>
<path d="M461.626 152.093C461.626 152.093 468.374 143.261 469.959 149.856C471.544 156.451 466.125 158.061 463.568 157.307C461.012 156.553 461.37 155.186 461.37 155.186" stroke="#263238" stroke-width="0.43541" stroke-linecap="round" stroke-linejoin="round"/>
<path d="M446.607 227.668C446.607 227.668 433.724 229.457 431.577 229.457C429.43 229.457 424.062 236.257 424.062 236.257H447.681L446.607 227.668Z" fill="white" stroke="#263238" stroke-width="0.43541" stroke-linecap="round" stroke-linejoin="round"/>
<path d="M501.336 219.004L505.963 229.433C506.17 230.047 506.229 230.701 506.136 231.343C506.043 231.984 505.799 232.594 505.426 233.124C505.052 233.653 504.559 234.087 503.986 234.389C503.413 234.692 502.776 234.855 502.128 234.865L446.275 235.185L446.633 227.669L489.935 220.819" fill="white"/>
<path d="M501.336 219.004L505.963 229.433C506.17 230.047 506.229 230.701 506.136 231.343C506.043 231.984 505.799 232.594 505.426 233.124C505.052 233.653 504.559 234.087 503.986 234.389C503.413 234.692 502.776 234.855 502.128 234.865L446.275 235.185L446.633 227.669L489.935 220.819" stroke="#263238" stroke-width="0.43541" stroke-linecap="round" stroke-linejoin="round"/>
<path d="M426.58 363.072L426.848 373.208H425.251L423.116 368.146L426.58 363.072Z" fill="#263238" stroke="#263238" stroke-width="0.43541" stroke-linecap="round" stroke-linejoin="round"/>
<path d="M423.717 356.3L421.66 341.551L410.949 342.241L414.656 356.76L409.927 366.231L399.702 372.916C399.702 372.916 398.526 374.091 403.638 373.695C408.751 373.299 419.359 373.695 419.359 373.695L426.044 365.835C426.044 365.835 428.459 361.732 423.717 356.3Z" fill="white" stroke="#263238" stroke-width="0.43541" stroke-linecap="round" stroke-linejoin="round"/>
<path d="M419.359 373.642L426.044 365.781C426.044 365.781 427.769 362.854 425.379 358.637C420.624 366.765 414.298 369.207 414.298 369.207L407.715 367.622L399.702 372.862C399.702 372.862 398.526 374.038 403.638 373.642C408.751 373.245 419.359 373.642 419.359 373.642Z" fill="#263238" stroke="#263238" stroke-width="0.43541" stroke-linecap="round" stroke-linejoin="round"/>
<path d="M418.808 265.882L423.397 344.256L408.865 344.601L394.678 273.398C394.678 273.398 394.946 259.837 399.279 258.278C403.612 256.718 415.115 258.393 415.115 258.393" fill="#92E3A9"/>
<path d="M418.808 265.882L423.397 344.256L408.865 344.601L394.678 273.398C394.678 273.398 394.946 259.837 399.279 258.278C403.612 256.718 415.115 258.393 415.115 258.393" stroke="#263238" stroke-width="0.43541" stroke-linecap="round" stroke-linejoin="round"/>
<path d="M355.287 97.1875L373.321 147.737C373.321 147.737 370.944 159.176 363.786 158.703C356.629 158.23 354.724 148.21 352.82 146.778C350.916 145.347 348.053 134.38 348.053 134.38L355.287 97.1875Z" fill="white" stroke="#263238" stroke-width="0.43541" stroke-linecap="round" stroke-linejoin="round"/>
<path d="M308.636 87.0566L279.316 97.6394L290.564 178.94H343.465L355.287 97.192L323.641 87.2867L308.636 87.0566Z" fill="white" stroke="#263238" stroke-width="0.43541" stroke-linecap="round" stroke-linejoin="round"/>
<path d="M311.46 100.982L315.69 107.36L312.022 161.449L317.416 175.534L322.95 161.833L318.208 108.165L322.017 98.9499L316.739 92.0098L311.46 100.982Z" fill="#92E3A9" stroke="#263238" stroke-width="0.43541" stroke-linecap="round" stroke-linejoin="round"/>
<path d="M317.315 98.354L309.761 104.016L304.79 89.2538L308.253 81.7769L323.706 81.4062L327.476 84.7932L326.722 103.633L317.315 98.354Z" fill="white" stroke="#263238" stroke-width="0.43541" stroke-linecap="round" stroke-linejoin="round"/>
<path d="M325.302 77.9435L324.127 87.4398L315.665 98.3549L309.339 87.2865V69.4824C309.339 69.4824 320.42 72.2559 325.302 77.9435Z" fill="white" stroke="#263238" stroke-width="0.43541" stroke-linecap="round" stroke-linejoin="round"/>
<path d="M304.993 58.2044C304.993 49.5772 311.282 42.5859 319.052 42.5859C326.823 42.5859 331.131 49.9606 331.131 58.5879C331.131 61.3741 330.555 66.1543 330.325 68.6977C329.929 73.0433 328.613 74.8837 326.044 78.782C317.621 91.563 310.706 72.8132 307.166 66.5121C305.733 63.9784 304.984 61.1153 304.993 58.2044Z" fill="white" stroke="#263238" stroke-width="0.43541" stroke-linecap="round" stroke-linejoin="round"/>
<path d="M325.162 60.9141L326.35 69.8225L322.171 69.7075" fill="white"/>
<path d="M325.162 60.9141L326.35 69.8225L322.171 69.7075" stroke="#263238" stroke-width="0.43541" stroke-linecap="round" stroke-linejoin="round"/>
<path d="M334.492 59.3691L314.401 59.4586C314.154 60.24 314.116 61.0724 314.291 61.8729C314.466 62.6735 314.847 63.4142 315.397 64.0215C316.676 65.2996 321.877 64.8522 322.708 64.5199C323.539 64.1876 323.986 60.5322 323.986 60.5322H325.482C325.482 60.5322 325.648 64.3665 327.795 64.6861C329.942 65.0056 332.741 64.9033 333.278 64.5199C335.655 62.9223 334.492 59.3691 334.492 59.3691Z" fill="white" stroke="#263238" stroke-width="0.43541" stroke-linecap="round" stroke-linejoin="round"/>
<path d="M307.473 67.9592C307.473 67.9592 311.998 77.2255 313.071 80.4335C314.145 83.6416 319.462 86.1467 324.843 84.3573C330.223 82.568 328.766 74.6054 328.766 74.6054C328.766 74.6054 323.053 69.723 321.992 70.771C320.932 71.8191 315.206 76.4842 314.848 75.4106C314.49 74.337 311.998 67.9209 311.998 67.9209L310.835 63.3708L313.225 61.8371C313.57 61.5497 313.794 61.1431 313.853 60.698C313.912 60.2529 313.802 59.8018 313.544 59.4342L312.419 57.811C312.281 57.6122 312.183 57.3877 312.133 57.1506C312.082 56.9135 312.08 56.6687 312.125 56.4307C312.419 55.0375 313.225 52.149 315.091 51.3182C317.647 50.2574 320.753 51.8039 323.616 52.5197C326.479 53.2354 329.584 50.6536 329.584 50.6536L330.862 54.8969C333.696 52.2375 335.71 48.8225 336.665 45.0555C338.097 38.9845 323.462 36.4922 318.772 36.4922C314.081 36.4922 306.642 39.0484 304.495 45.7713C302.348 52.4941 306.208 66.7578 307.473 67.9592Z" fill="#263238" stroke="#263238" stroke-width="0.43541" stroke-linecap="round" stroke-linejoin="round"/>
<path d="M319.052 45.0918C319.052 45.0918 321.711 49.0795 318.221 49.9103C314.732 50.741 307.933 47.7502 304.942 48.9133" stroke="white" stroke-width="0.217705" stroke-linecap="round" stroke-linejoin="round"/>
<path d="M313.071 53.8867C313.071 53.8867 307.6 53.2221 305.402 55.5483" stroke="white" stroke-width="0.217705" stroke-linecap="round" stroke-linejoin="round"/>
<path d="M326.235 74.0427C326.235 74.0427 322.209 76.1388 320.215 73.6465" stroke="white" stroke-width="0.217705" stroke-linecap="round" stroke-linejoin="round"/>
<path d="M308.15 65.1336C308.15 65.1336 304.2 60.788 304.2 65.5298C304.2 70.2716 305.389 70.2716 307.753 71.9203C310.118 73.5691 310.923 71.5241 310.923 71.5241" fill="white"/>
<path d="M308.15 65.1336C308.15 65.1336 304.2 60.788 304.2 65.5298C304.2 70.2716 305.389 70.2716 307.753 71.9203C310.118 73.5691 310.923 71.5241 310.923 71.5241" stroke="#263238" stroke-width="0.43541" stroke-linecap="round" stroke-linejoin="round"/>
<path d="M360.885 359.75H361.063L360.718 358.012L343.464 178.949H290.563L273.168 359.738H273.36L284.581 360.696C284.581 360.696 297.03 318.902 297.03 315.783C297.03 312.665 300.583 283.831 300.583 283.831L318.234 221.779L333.84 283.831C333.84 283.831 337.393 312.729 337.393 315.783C337.393 318.838 349.854 360.722 349.854 360.722L360.412 359.814H360.885V359.75Z" fill="#263238" stroke="#263238" stroke-width="0.43541" stroke-linecap="round" stroke-linejoin="round"/>
<path d="M339.515 189.482L327.744 206.29" stroke="white" stroke-width="0.217705" stroke-linecap="round" stroke-linejoin="round"/>
<path d="M333.214 193.268L326.069 205.039" stroke="white" stroke-width="0.217705" stroke-linecap="round" stroke-linejoin="round"/>
<path d="M299.6 192.438L310.093 203.774" stroke="white" stroke-width="0.217705" stroke-linecap="round" stroke-linejoin="round"/>
<path d="M298.756 196.627L313.876 211.76" stroke="white" stroke-width="0.217705" stroke-linecap="round" stroke-linejoin="round"/>
<path d="M293.707 180.664H340.358" stroke="white" stroke-width="0.217705" stroke-linecap="round" stroke-linejoin="round"/>
<path d="M273.36 359.742C273.36 359.742 266.624 365.046 262.739 366.503C258.853 367.96 251.594 371.833 251.594 371.833C251.594 371.833 251.594 374.261 257.895 374.261H282.626L282.204 359.742H273.36Z" fill="#263238" stroke="#263238" stroke-width="0.43541" stroke-linecap="round" stroke-linejoin="round"/>
<path d="M282.536 371.614C272.661 372.065 262.766 371.907 252.91 371.141L251.632 371.831C251.632 371.831 251.632 374.259 257.933 374.259H282.664L282.536 371.614Z" fill="white" stroke="#263238" stroke-width="0.43541" stroke-linecap="round" stroke-linejoin="round"/>
<path d="M359.862 359.742C359.862 359.742 366.611 365.046 370.483 366.503C374.356 367.96 381.641 371.833 381.641 371.833C381.641 371.833 381.641 374.261 375.327 374.261H350.609L351.056 359.742H359.862Z" fill="#263238" stroke="#263238" stroke-width="0.43541" stroke-linecap="round" stroke-linejoin="round"/>
<path d="M350.686 371.614C360.561 372.065 370.456 371.907 380.312 371.141L381.59 371.831C381.59 371.831 381.59 374.259 375.276 374.259H350.609L350.686 371.614Z" fill="white" stroke="#263238" stroke-width="0.43541" stroke-linecap="round" stroke-linejoin="round"/>
<path d="M279.316 97.6348L259.838 149.641H278.524L285.502 135.454L279.316 97.6348Z" fill="white" stroke="#263238" stroke-width="0.43541" stroke-linecap="round" stroke-linejoin="round"/>
<path d="M364.528 141.589C356.731 138.368 331.719 136.771 330.415 136.771C329.111 136.771 288.455 133.422 285.119 132.936C281.783 132.451 277.961 140.094 277.961 140.094L295.599 139.608L317.059 143.902C317.059 143.902 360.514 159.636 363.786 158.69C364.232 158.542 364.636 158.287 364.962 157.949" fill="white"/>
<path d="M364.528 141.589C356.731 138.368 331.719 136.771 330.415 136.771C329.111 136.771 288.455 133.422 285.119 132.936C281.783 132.451 277.961 140.094 277.961 140.094L295.599 139.608L317.059 143.902C317.059 143.902 360.514 159.636 363.786 158.69C364.232 158.542 364.636 158.287 364.962 157.949" stroke="#263238" stroke-width="0.43541" stroke-linecap="round" stroke-linejoin="round"/>
<path d="M273.667 139.148L340.896 132.477L341.382 138.19L283.202 155.84C283.202 155.84 272.722 158.218 264.606 156.786C256.49 155.355 260.324 147.251 262.228 142.484" fill="white"/>
<path d="M273.667 139.148L340.896 132.477L341.382 138.19L283.202 155.84C283.202 155.84 272.722 158.218 264.606 156.786C256.49 155.355 260.324 147.251 262.228 142.484" stroke="#263238" stroke-width="0.43541" stroke-linecap="round" stroke-linejoin="round"/>
<path d="M340.908 132.478L353.779 131.992L357.588 139.622L341.381 138.204L340.908 132.478Z" fill="white" stroke="#263238" stroke-width="0.43541" stroke-linecap="round" stroke-linejoin="round"/>
<path d="M426.632 244.613L437.611 375.325C437.64 375.52 437.708 375.707 437.812 375.874C437.916 376.042 438.053 376.186 438.214 376.299C438.376 376.411 438.559 376.489 438.752 376.529C438.945 376.568 439.144 376.567 439.336 376.527C439.665 376.445 439.954 376.248 440.148 375.971C440.343 375.694 440.432 375.356 440.397 375.019L432.92 244.652L426.632 244.613Z" fill="#263238" stroke="#263238" stroke-width="0.43541" stroke-linecap="round" stroke-linejoin="round"/>
<path d="M500.417 244.613L511.434 375.76C511.461 375.956 511.529 376.143 511.632 376.312C511.735 376.48 511.872 376.625 512.034 376.738C512.196 376.851 512.38 376.929 512.574 376.967C512.767 377.006 512.967 377.004 513.16 376.961C513.489 376.88 513.777 376.683 513.972 376.405C514.167 376.128 514.255 375.79 514.221 375.453L506.718 244.613H500.417Z" fill="#263238" stroke="#263238" stroke-width="0.43541" stroke-linecap="round" stroke-linejoin="round"/>
<path d="M195.921 244.613L190.182 374.188C190.15 374.528 190.241 374.868 190.438 375.147C190.635 375.426 190.925 375.625 191.256 375.709C191.445 375.758 191.644 375.765 191.837 375.731C192.03 375.696 192.213 375.621 192.374 375.509C192.535 375.398 192.671 375.253 192.771 375.084C192.871 374.916 192.934 374.728 192.955 374.533L202.247 244.613H195.921Z" fill="#263238" stroke="#263238" stroke-width="0.43541" stroke-linecap="round" stroke-linejoin="round"/>
<path d="M127.913 244.616L122.136 373.705C122.108 374.046 122.201 374.386 122.4 374.664C122.599 374.943 122.891 375.142 123.223 375.225C123.413 375.272 123.61 375.278 123.802 375.243C123.994 375.207 124.177 375.131 124.337 375.02C124.498 374.909 124.633 374.765 124.734 374.598C124.835 374.43 124.899 374.244 124.923 374.05L134.176 244.564L127.913 244.616Z" fill="#263238" stroke="#263238" stroke-width="0.43541" stroke-linecap="round" stroke-linejoin="round"/>
<path d="M514.784 237.365H123.823V248.587H514.784V237.365Z" fill="#92E3A9" stroke="#263238" stroke-width="0.43541" stroke-linecap="round" stroke-linejoin="round"/>
<path d="M514.784 237.365H123.823V241.212H514.784V237.365Z" fill="#263238" stroke="#263238" stroke-width="0.43541" stroke-linecap="round" stroke-linejoin="round"/>
<path d="M514.771 237.365H416.944V248.587H514.771V237.365Z" fill="#263238" stroke="#263238" stroke-width="0.43541" stroke-linecap="round" stroke-linejoin="round"/>
<path d="M518.26 233.633H120.333V237.914H518.26V233.633Z" fill="#92E3A9" stroke="#263238" stroke-width="0.43541" stroke-linecap="round" stroke-linejoin="round"/>
<path d="M518.247 233.633H421.021V237.914H518.247V233.633Z" fill="#263238" stroke="#263238" stroke-width="0.43541" stroke-linecap="round" stroke-linejoin="round"/>
<path d="M208.971 233.252H262.37C262.574 233.253 262.773 233.195 262.944 233.083C263.114 232.972 263.248 232.813 263.329 232.626L278.117 198.909C278.185 198.751 278.212 198.579 278.197 198.407C278.181 198.236 278.123 198.071 278.028 197.928C277.933 197.784 277.804 197.667 277.652 197.586C277.5 197.505 277.33 197.464 277.158 197.465H223.759C223.559 197.465 223.363 197.523 223.195 197.632C223.027 197.74 222.894 197.896 222.813 198.078L208.076 231.795C208.007 231.949 207.977 232.117 207.988 232.285C207.999 232.453 208.051 232.616 208.139 232.76C208.227 232.903 208.349 233.023 208.494 233.109C208.639 233.195 208.803 233.244 208.971 233.252Z" fill="white" stroke="#263238" stroke-width="0.43541" stroke-linecap="round" stroke-linejoin="round"/>
<path d="M213.98 230.621H259.545C259.715 230.621 259.882 230.572 260.025 230.479C260.168 230.386 260.281 230.253 260.35 230.097L272.965 201.327C273.033 201.191 273.065 201.04 273.058 200.888C273.051 200.737 273.004 200.589 272.923 200.461C272.842 200.332 272.729 200.227 272.596 200.154C272.462 200.082 272.312 200.046 272.16 200.049H226.595C226.421 200.048 226.25 200.098 226.105 200.194C225.959 200.289 225.845 200.426 225.777 200.586L213.188 229.382C213.129 229.515 213.103 229.661 213.114 229.806C213.125 229.951 213.172 230.092 213.251 230.215C213.329 230.337 213.437 230.439 213.564 230.51C213.691 230.581 213.834 230.619 213.98 230.621Z" fill="#92E3A9" stroke="#263238" stroke-width="0.43541" stroke-linecap="round" stroke-linejoin="round"/>
<path d="M263.111 231.014H182.884V233.634H263.111V231.014Z" fill="white" stroke="#263238" stroke-width="0.43541" stroke-linecap="round" stroke-linejoin="round"/>
<path d="M263.123 231.014H224.23V233.634H263.123V231.014Z" fill="white" stroke="#263238" stroke-width="0.43541" stroke-linecap="round" stroke-linejoin="round"/>
<path d="M288.89 212.777H274.742V233.687H288.89V212.777Z" fill="white" stroke="#263238" stroke-width="0.43541" stroke-linecap="round" stroke-linejoin="round"/>
<path d="M288.264 230.833H286.782C286.473 230.833 286.177 230.711 285.959 230.493C285.741 230.275 285.619 229.979 285.619 229.67C285.619 229.362 285.741 229.066 285.959 228.848C286.177 228.63 286.473 228.507 286.782 228.507H288.264C288.85 228.504 289.41 228.27 289.824 227.856C290.238 227.442 290.472 226.882 290.475 226.296V221.184C290.472 220.598 290.238 220.038 289.824 219.624C289.41 219.21 288.85 218.976 288.264 218.973H286.36C286.207 218.973 286.056 218.943 285.915 218.884C285.774 218.826 285.645 218.74 285.537 218.632C285.429 218.524 285.344 218.396 285.285 218.255C285.227 218.114 285.197 217.962 285.197 217.81C285.197 217.657 285.227 217.506 285.285 217.364C285.344 217.223 285.429 217.095 285.537 216.987C285.645 216.879 285.774 216.793 285.915 216.735C286.056 216.677 286.207 216.646 286.36 216.646H288.264C288.86 216.646 289.45 216.764 290.001 216.992C290.551 217.22 291.051 217.554 291.473 217.975C291.894 218.397 292.228 218.897 292.456 219.447C292.684 219.998 292.802 220.588 292.802 221.184V226.296C292.802 226.892 292.684 227.482 292.456 228.033C292.228 228.583 291.894 229.083 291.473 229.505C291.051 229.926 290.551 230.26 290.001 230.488C289.45 230.716 288.86 230.833 288.264 230.833Z" fill="white" stroke="#263238" stroke-width="0.43541" stroke-linecap="round" stroke-linejoin="round"/>
<path d="M399.434 233.252H346.035C345.834 233.251 345.637 233.191 345.469 233.08C345.301 232.969 345.169 232.811 345.089 232.626L330.301 198.909C330.234 198.752 330.206 198.581 330.221 198.41C330.236 198.24 330.293 198.076 330.386 197.933C330.48 197.79 330.608 197.672 330.758 197.591C330.908 197.509 331.076 197.466 331.247 197.465H384.647C384.849 197.464 385.046 197.521 385.216 197.63C385.387 197.739 385.522 197.895 385.605 198.078L400.393 231.795C400.46 231.954 400.487 232.127 400.472 232.299C400.456 232.47 400.398 232.636 400.304 232.78C400.209 232.924 400.08 233.043 399.928 233.125C399.777 233.207 399.607 233.251 399.434 233.252Z" fill="white" stroke="#263238" stroke-width="0.43541" stroke-linecap="round" stroke-linejoin="round"/>
<path d="M345.294 233.633H425.521V231.013H345.294V233.633Z" fill="white" stroke="#263238" stroke-width="0.43541" stroke-linecap="round" stroke-linejoin="round"/>
<path d="M345.293 233.633H400.609V231.013H345.293V233.633Z" fill="white" stroke="#263238" stroke-width="0.43541" stroke-linecap="round" stroke-linejoin="round"/>
<path d="M366.229 211.463C366.518 212.01 366.64 212.631 366.578 213.247C366.516 213.863 366.274 214.447 365.881 214.926C365.489 215.404 364.964 215.757 364.372 215.939C363.781 216.12 363.148 216.123 362.555 215.947C361.961 215.771 361.433 215.424 361.036 214.949C360.639 214.474 360.392 213.892 360.324 213.277C360.256 212.661 360.372 212.04 360.656 211.49C360.94 210.94 361.38 210.486 361.922 210.185C362.662 209.785 363.532 209.695 364.339 209.934C365.147 210.174 365.826 210.724 366.229 211.463Z" fill="white" stroke="#263238" stroke-width="0.43541" stroke-linecap="round" stroke-linejoin="round"/>
<path d="M116.524 112.219L120.461 151.112L138.354 202.914L132.232 206.416L111.22 158.998L100.727 118.29C100.727 118.29 99.845 106.046 104.229 104.231C108.613 102.416 114.773 104.346 116.524 112.219Z" fill="white" stroke="#263238" stroke-width="0.43541" stroke-linecap="round" stroke-linejoin="round"/>
<path d="M138.405 202.965C138.405 202.965 142.342 211.285 142.789 213.471C143.237 215.656 143.684 220.117 141.958 222.111C139.875 224.514 137.971 222.66 137.971 222.66C137.971 222.66 132.718 221.382 132.718 216.973C132.718 212.563 132.283 206.467 132.283 206.467L138.405 202.965Z" fill="white" stroke="#263238" stroke-width="0.43541" stroke-linecap="round" stroke-linejoin="round"/>
<path d="M134.111 216.016L141.486 217.933" stroke="#263238" stroke-width="0.43541" stroke-linecap="round" stroke-linejoin="round"/>
<path d="M135.875 211.042L137.971 214.339C137.971 214.339 133.088 222.685 135.708 220.5C138.328 218.314 143.224 215.656 142.789 213.47C142.049 211.177 141.072 208.966 139.875 206.875" fill="white"/>
<path d="M135.875 211.042L137.971 214.339C137.971 214.339 133.088 222.685 135.708 220.5C138.328 218.314 143.224 215.656 142.789 213.47C142.049 211.177 141.072 208.966 139.875 206.875" stroke="#263238" stroke-width="0.43541" stroke-linecap="round" stroke-linejoin="round"/>
<path d="M95.6012 65.4822C95.6012 65.4822 91.1023 60.6254 80.724 63.744C70.3458 66.8626 67.943 83.478 68.2625 91.7729C68.582 100.068 76.5702 109.424 74.1546 113.577C71.7389 117.731 62.7283 127.419 63.4185 137.861C64.1086 148.304 72.7614 156.547 85.223 152.739C97.6845 148.93 95.6012 133.682 93.1217 128.109C90.6422 122.537 95.8952 120.147 97.6206 108.03C99.3461 95.9139 88.2777 85.8808 88.2777 77.228C88.2777 68.5752 97.2244 69.9684 97.2244 69.9684L95.6012 65.4822Z" fill="#263238" stroke="#263238" stroke-width="0.43541" stroke-linecap="round" stroke-linejoin="round"/>
<path d="M80.0088 98.3281C81.6448 101.702 83.5492 105.307 85.4408 109.192C91.7547 122.075 86.8212 126.728 77.2226 133.86C67.624 140.991 69.8223 149.759 72.2891 151.114" stroke="white" stroke-width="0.217705" stroke-linecap="round" stroke-linejoin="round"/>
<path d="M92.304 68.8926C92.304 68.8926 79.4207 69.9918 76.1232 78.21C74.1293 83.2074 75.663 88.8055 78.6027 95.3239" stroke="white" stroke-width="0.217705" stroke-linecap="round" stroke-linejoin="round"/>
<path d="M82.8848 147.904C83.876 148.277 84.933 148.442 85.9906 148.39" stroke="white" stroke-width="0.217705" stroke-linecap="round" stroke-linejoin="round"/>
<path d="M95.601 68.0352C95.601 68.0352 83.5357 70.2207 80.8005 78.9886C78.0654 87.7564 94.2334 100.716 95.0514 110.251C95.8694 119.786 84.3536 125.358 80.2637 132.759C77.388 137.948 77.7075 143.661 80.7366 146.537" stroke="white" stroke-width="0.217705" stroke-linecap="round" stroke-linejoin="round"/>
<path d="M126.557 244.504C126.557 244.504 123.579 270.219 120.589 278.425C117.598 286.63 110.901 351.111 110.53 354.843C110.159 358.575 120.218 367.138 124.321 369.758C128.424 372.379 126.557 373.107 122.084 373.478C117.611 373.848 112.396 373.107 110.159 369.004C107.923 364.902 102.695 363.79 102.695 363.79L101.954 372.736H100.459L99.3466 361.553C98.9665 359.014 99.3537 356.419 100.459 354.102C102.325 349.999 103.015 341.423 103.015 329.818C103.015 318.212 100.778 299.616 101.89 290.669C103.002 281.722 107.488 275.012 107.488 267.561C107.488 260.11 107.859 248.926 107.859 248.926L126.557 244.504Z" fill="white" stroke="#263238" stroke-width="0.43541" stroke-linecap="round" stroke-linejoin="round"/>
<path d="M99.3466 361.555C99.0498 359.632 99.2118 357.665 99.8195 355.816C102.133 359.727 108.766 365.032 113.879 367.14C116.651 368.341 119.673 368.849 122.685 368.623C123.286 369.07 123.848 369.454 124.321 369.761C128.424 372.317 126.558 373.109 122.084 373.48C117.611 373.851 112.396 373.109 110.159 369.006C107.923 364.904 102.695 363.792 102.695 363.792L101.954 372.739H100.459L99.3466 361.555Z" fill="#263238" stroke="#263238" stroke-width="0.43541" stroke-linecap="round" stroke-linejoin="round"/>
<path d="M104.932 248.606C104.932 248.606 98.5413 267.611 92.6365 284.01C86.7316 300.408 72.5063 338.061 71.0109 344.771C69.5155 351.481 68.7742 363.789 64.6203 370.128C60.4665 376.468 56.4149 379.446 57.1562 368.262C57.8975 357.079 64.6203 348.874 66.1029 340.297C67.5855 331.721 68.3396 300.791 73.5543 287C78.769 273.21 84.3671 262.026 85.0573 257.923C85.567 253.841 85.8146 249.73 85.7986 245.615L104.932 248.606Z" fill="white" stroke="#263238" stroke-width="0.43541" stroke-linecap="round" stroke-linejoin="round"/>
<path d="M57.9223 363.471C57.9774 365.579 58.6336 367.628 59.8139 369.376C61.9611 371.778 65.4248 367.113 67.2269 364.263C66.6373 366.319 65.7777 368.287 64.6707 370.117C60.568 376.444 56.4652 379.434 57.2065 368.251C57.3298 366.642 57.569 365.045 57.9223 363.471Z" fill="#263238" stroke="#263238" stroke-width="0.43541" stroke-linecap="round" stroke-linejoin="round"/>
<path d="M101.992 98.584C101.992 98.584 99.7551 100.45 98.2597 113.129C96.7643 125.808 106.095 165.314 106.095 165.314C106.095 165.314 90.067 191.566 86.335 204.616C82.6029 217.665 80.3662 266.553 80.3662 266.553C80.3662 266.553 88.201 269.544 104.228 270.656C120.256 271.768 128.832 267.678 128.832 267.678C128.832 267.678 129.573 197.906 129.573 187.157C129.573 176.408 130.327 151.958 131.439 148.98C132.551 146.002 135.913 138.167 135.913 135.189C135.913 132.211 113.495 100.45 113.495 100.45L101.992 98.584Z" fill="white" stroke="#263238" stroke-width="0.43541" stroke-linecap="round" stroke-linejoin="round"/>
<path d="M86.2969 204.613C89.2365 194.388 101.404 167.19 105.75 162.512C112.358 164.71 124.41 166.883 129.791 165.272C129.625 169.107 129.535 183.422 129.535 187.09C129.535 197.903 128.794 267.611 128.794 267.611C128.794 267.611 120.218 271.713 104.19 270.589C88.1629 269.464 80.3281 266.486 80.3281 266.486C80.3281 266.486 82.5648 217.662 86.2969 204.613Z" fill="#263238" stroke="#263238" stroke-width="0.43541" stroke-linecap="round" stroke-linejoin="round"/>
<path d="M110.261 54.6425C110.261 54.6425 114.262 45.9258 122.173 45.9258C130.085 45.9258 133.599 52.9554 131.848 59.1031C130.097 65.2508 137.114 63.4998 137.996 67.4619C138.878 71.424 132.283 74.0442 128.768 74.0442C125.253 74.0442 110.261 54.6425 110.261 54.6425Z" fill="#263238" stroke="#263238" stroke-width="0.43541" stroke-linecap="round" stroke-linejoin="round"/>
<path d="M121.816 53.7468C124.168 52.4687 126.928 51.5485 128.206 53.5423C130.673 57.3766 123.005 60.393 125.471 64.5085C127.938 68.624 133.971 67.5248 133.69 68.8924C133.408 70.26 129.587 71.078 129.587 71.078" stroke="white" stroke-width="0.217705" stroke-linecap="round" stroke-linejoin="round"/>
<path d="M117.79 56.5339C117.79 56.5339 118.544 55.8822 119.669 55.0898" stroke="white" stroke-width="0.217705" stroke-linecap="round" stroke-linejoin="round"/>
<path d="M130.545 74.9248C129.986 74.509 129.545 73.9537 129.267 73.3144C128.628 68.5982 127.248 63.9587 124.64 61.3513C120.696 57.6382 115.666 55.2866 110.287 54.6413C108.694 54.4065 107.069 54.5555 105.545 55.0758C98.7585 57.4531 92.9303 62.1438 94.1829 73.455C95.5632 85.9166 105.264 89.0351 105.264 89.0351L105.954 96.7038L115.642 101.203L115.987 92.895C115.987 92.895 122.557 95.6557 124.934 95.3106C127.311 94.9656 128.053 91.847 129.088 87.348C129.468 85.2952 129.656 83.2114 129.65 81.1237L132.552 78.2351C134.2 76.5608 132.577 76.1518 130.545 74.9248Z" fill="white" stroke="#263238" stroke-width="0.43541" stroke-linecap="round" stroke-linejoin="round"/>
<path d="M94.157 73.455C92.8789 62.1438 98.7326 57.4531 105.519 55.0758C107.043 54.5555 108.669 54.4065 110.261 54.6413C113.928 55.1315 117.458 56.3574 120.639 58.2455C118.697 57.8493 122.007 63.5624 118.965 67.1923C116.301 70.5619 112.905 73.2806 109.034 75.1421C109.034 75.1421 105.583 72.3686 104.535 76.1774C103.487 79.9861 103.845 82.7468 106.619 83.4498C109.392 84.1528 110.453 83.4498 110.453 83.4498C110.453 83.4498 108.612 87.8082 105.34 89.6103V88.984C105.34 88.984 95.6013 85.9293 94.157 73.455Z" fill="#263238" stroke="#263238" stroke-width="0.43541" stroke-linecap="round" stroke-linejoin="round"/>
<path d="M120.588 98.9537L118.735 109.025L98.9756 98.583L100.842 89.2656L120.588 98.9537Z" fill="white" stroke="#263238" stroke-width="0.43541" stroke-linecap="round" stroke-linejoin="round"/>
<path d="M111.041 183.873C113.087 184.311 115.164 184.592 117.253 184.716C118.876 184.614 121.087 182.786 122.723 183.566C124.359 184.346 126.647 189.266 126.647 189.266C126.647 189.266 128.819 190.366 128.193 191.529C127.567 192.692 124.883 193.765 124.883 193.765C124.883 193.765 122.327 196.181 120.844 196.424C119.361 196.667 110.325 190.033 110.325 190.033L111.041 183.873Z" fill="white" stroke="#263238" stroke-width="0.43541" stroke-linecap="round" stroke-linejoin="round"/>
<path d="M111.999 188.651C112.299 188.292 112.513 187.87 112.628 187.417C112.743 186.963 112.755 186.49 112.663 186.032C112.571 185.573 112.378 185.141 112.097 184.767C111.816 184.393 111.455 184.087 111.041 183.871L86.2072 160.609L113.252 118.559C114.459 116.336 114.752 113.73 114.069 111.294C113.386 108.859 111.781 106.785 109.594 105.513C107.408 104.24 104.812 103.87 102.357 104.481C99.9017 105.091 97.7811 106.634 96.4448 108.782L73.0043 155.369C71.7855 156.552 71.0809 158.166 71.0427 159.864C71.0044 161.562 71.6356 163.207 72.7998 164.444L72.8893 164.533C75.241 168.163 101.11 187.143 108.676 189.622C109.264 189.808 109.894 189.816 110.486 189.643C111.078 189.47 111.604 189.124 111.999 188.651Z" fill="white" stroke="#263238" stroke-width="0.43541" stroke-linecap="round" stroke-linejoin="round"/>
<path d="M210.259 124.267C210.259 124.267 213.467 134.198 213.467 136.128C213.443 137.522 213.337 138.913 213.147 140.295L215.972 144.679C216.138 144.961 216.189 145.295 216.115 145.614C216.041 145.933 215.848 146.211 215.576 146.391L211.217 148.948C211.217 148.948 210.578 159.172 209.939 160.451C209.3 161.729 198.436 161.422 198.436 161.422L194.909 168.145L176.632 161.102L181.438 147.951L180.441 128.102C180.441 128.102 191.662 118.184 210.259 124.267Z" fill="white" stroke="#263238" stroke-width="0.43541" stroke-linecap="round" stroke-linejoin="round"/>
<path d="M197.747 148.425C197.747 148.425 194.564 151.416 192.174 151.621C189.784 151.825 182.013 150.023 181.412 149.231C180.812 148.438 175.444 137.28 175.635 131.899C175.827 126.519 176.044 118.556 181.809 115.974C187.573 113.392 196.75 114.172 201.53 111.194C206.31 108.216 213.876 105.813 217.864 110.99C221.852 116.166 218.861 123.336 215.679 126.327C212.496 129.318 208.508 130.161 208.905 131.439C209.301 132.717 211.691 134.226 210.298 136.219C208.905 138.213 203.907 140.054 203.907 140.795C203.907 141.536 205.109 144.386 203.715 144.783C202.322 145.179 200.916 141.996 199.523 141.996C198.13 141.996 195.165 145.844 197.747 148.425Z" fill="#263238" stroke="#263238" stroke-width="0.43541" stroke-linecap="round" stroke-linejoin="round"/>
<path d="M189.426 139.289C188.852 139.931 188.362 140.644 187.969 141.41" stroke="white" stroke-width="0.217705" stroke-linecap="round" stroke-linejoin="round"/>
<path d="M215.602 118.646C215.349 120.84 214.549 122.935 213.276 124.739C212.004 126.544 210.298 128 208.316 128.974C203.204 131.619 196.392 133.779 191.867 137.102" stroke="white" stroke-width="0.217705" stroke-linecap="round" stroke-linejoin="round"/>
<path d="M208.904 131.504C208.904 131.504 204.367 135.338 199.51 139.288C196.196 141.853 192.512 143.9 188.583 145.359" stroke="white" stroke-width="0.217705" stroke-linecap="round" stroke-linejoin="round"/>
<path d="M197.427 148.965L199.983 149.604C199.829 150.799 199.92 152.013 200.252 153.171C200.584 154.33 201.149 155.408 201.913 156.34" fill="white"/>
<path d="M197.427 148.965L199.983 149.604C199.829 150.799 199.92 152.013 200.252 153.171C200.584 154.33 201.149 155.408 201.913 156.34" stroke="#263238" stroke-width="0.43541" stroke-linecap="round" stroke-linejoin="round"/>
<path d="M200.393 142.098L218.439 137.625" stroke="#263238" stroke-width="0.43541" stroke-linecap="round" stroke-linejoin="round"/>
<path d="M213.8 137.266L217.915 137.445C217.915 137.445 219.334 142.097 215.052 142.634" stroke="#263238" stroke-width="0.43541" stroke-linecap="round" stroke-linejoin="round"/>
<path d="M195.6 358.236C195.6 358.236 212.215 368.729 215.142 368.729C218.069 368.729 219.526 371.362 218.069 371.656C216.612 371.95 207.563 372.231 201.453 372.525C195.344 372.819 191.228 372.231 187.739 372.231C184.25 372.231 180.147 372.525 178.396 371.656C176.645 370.787 179.572 360.856 179.572 359.105C179.572 357.354 193.555 357.06 195.6 358.236Z" fill="#263238" stroke="#263238" stroke-width="0.43541" stroke-linecap="round" stroke-linejoin="round"/>
<path d="M217.02 369.168C210.566 371.29 200.098 369.896 193.81 369.321C188.838 368.874 181.029 368.772 177.846 368.746C177.718 370.241 177.846 371.379 178.345 371.66C180.096 372.529 184.185 372.235 187.688 372.235C191.19 372.235 195.267 372.823 201.402 372.529C207.537 372.235 216.573 371.941 218.017 371.66C219.155 371.43 218.618 369.922 217.02 369.168Z" fill="white" stroke="#263238" stroke-width="0.43541" stroke-linecap="round" stroke-linejoin="round"/>
<path d="M208.725 286.154L195.612 351.913L198.347 358.738C196.384 361.58 193.423 363.579 190.052 364.336C186.304 365.073 182.497 365.467 178.677 365.512C178.677 365.512 177.22 358.214 178.102 357.332C178.984 356.45 179.265 352.961 179.265 352.961L186.844 286.729L208.725 286.154Z" fill="#92E3A9" stroke="#263238" stroke-width="0.43541" stroke-linecap="round" stroke-linejoin="round"/>
<path d="M248.692 356.012C248.692 356.012 258.917 364.473 263.582 365.93C268.247 367.387 273.207 368.845 273.207 370.302C273.207 371.759 262.125 373.216 253.664 372.347C245.203 371.477 232.358 367.681 229.444 367.681C226.53 367.681 227.105 360.089 227.105 358.926C227.105 357.763 241.407 348.42 248.692 356.012Z" fill="#263238" stroke="#263238" stroke-width="0.43541" stroke-linecap="round" stroke-linejoin="round"/>
<path d="M273.257 370.303C273.257 369.779 272.606 369.255 271.57 368.731C263.219 369.848 254.752 369.788 246.417 368.552C238.02 367.351 230.99 365.74 227.399 364.846C227.706 366.418 228.306 367.683 229.495 367.683C232.409 367.683 245.254 371.517 253.715 372.348C262.176 373.179 273.257 371.76 273.257 370.303Z" fill="white" stroke="#263238" stroke-width="0.43541" stroke-linecap="round" stroke-linejoin="round"/>
<path d="M197.939 256.681C206.688 256.012 215.481 256.208 224.191 257.269C239.068 259.02 272.312 261.104 272.887 264.861C273.462 268.619 247.095 347.593 247.095 349.625C247.095 351.658 249.421 353.715 250.009 354.878C250.38 355.708 250.58 356.603 250.597 357.511C250.597 357.511 243.452 365.18 237.905 367.263C232.358 369.346 227.68 367.391 226.53 367.391C225.38 367.391 225.367 359.518 226.249 355.722C227.131 351.926 228.575 342.302 228.869 341.433C229.163 340.564 245.139 284.403 245.139 284.403C245.139 284.403 201.684 291.407 175.725 288.481C149.767 285.554 147.134 281.489 145.677 275.354C144.22 269.22 147.134 256.975 147.134 256.975L197.939 256.681Z" fill="#92E3A9" stroke="#263238" stroke-width="0.43541" stroke-linecap="round" stroke-linejoin="round"/>
<path d="M194.655 275.582C194.065 276.436 193.406 277.239 192.686 277.986" stroke="#263238" stroke-width="0.43541" stroke-linecap="round" stroke-linejoin="round"/>
<path d="M202.603 259.893C200.926 264.093 198.992 268.186 196.813 272.15" stroke="#263238" stroke-width="0.43541" stroke-linecap="round" stroke-linejoin="round"/>
<path d="M199.127 262.814C195.607 268.622 190.277 273.112 183.956 275.596" stroke="#263238" stroke-width="0.43541" stroke-linecap="round" stroke-linejoin="round"/>
<path d="M265.358 278.923C266.355 278.54 267.314 278.143 268.221 277.734L265.358 278.923Z" fill="white"/>
<path d="M265.358 278.923C266.355 278.54 267.314 278.143 268.221 277.734" stroke="#263238" stroke-width="0.43541" stroke-linecap="round" stroke-linejoin="round"/>
<path d="M245.139 284.404C250.753 283.32 256.3 281.916 261.754 280.199L245.139 284.404Z" fill="white"/>
<path d="M245.139 284.404C250.753 283.32 256.3 281.916 261.754 280.199" stroke="#263238" stroke-width="0.43541" stroke-linecap="round" stroke-linejoin="round"/>
<path d="M278.868 187.51C279.482 185.069 280.504 185.261 279.686 184.456C278.562 183.331 277.654 184.66 274.395 186.488C271.136 188.316 267.889 190.552 267.889 190.552C267.961 189.874 268.242 189.235 268.695 188.725C269.519 187.377 269.96 185.831 269.973 184.251C269.973 182.973 268.95 183.229 268.541 184.456C268.132 185.683 264.477 187.907 264.272 188.929C264.068 189.952 263.339 193.965 263.339 193.965C262.176 195.716 262.176 203.883 262.176 203.883L238.493 221.674L226.53 235.733C226.53 235.733 231.783 244.195 234.697 243.031C237.611 241.868 239.068 240.693 246.072 234.852C252.002 229.905 266.867 207.091 266.867 207.091C269.456 205.465 271.906 203.627 274.19 201.595C276.826 198.613 278.384 194.832 278.613 190.859C278.558 189.737 278.644 188.612 278.868 187.51Z" fill="white" stroke="#263238" stroke-width="0.43541" stroke-linecap="round" stroke-linejoin="round"/>
<path d="M169.284 160.516C169.284 160.516 171.534 152.081 181.094 153.768C190.654 155.455 197.965 163.328 199.652 166.14C201.339 168.952 168.722 165.015 168.722 165.015L169.284 160.516Z" fill="white" stroke="#263238" stroke-width="0.43541" stroke-linecap="round" stroke-linejoin="round"/>
<path d="M224.396 234.189C224.396 234.189 222.172 236.592 224.396 240.375C225.917 242.995 228.601 245.002 233.739 244.12C238.544 243.276 245.766 231.339 245.766 222.941C245.766 214.544 239.58 213.995 237.33 215.631C235.081 217.267 224.396 234.189 224.396 234.189Z" fill="white" stroke="#263238" stroke-width="0.43541" stroke-linecap="round" stroke-linejoin="round"/>
<path d="M173.424 159.533C173.424 159.533 150.674 170.333 147.466 172.314C144.258 174.295 142.213 199.729 142.213 204.113C142.213 208.497 145.421 251.403 146.29 258.663C147.159 265.922 175.175 270.92 184.518 268.287C193.861 265.654 202.961 259.021 202.961 256.682C202.961 254.343 202.079 234.519 202.667 230.723C203.255 226.927 208.496 210.887 208.496 210.887L224.421 236.296C224.421 236.296 226.095 239.414 232.013 236.96C240.474 233.458 241.177 219.923 241.177 219.923C241.177 219.923 231.847 203.589 229.214 195.422C226.581 187.255 225.379 181.12 224.255 179.663C223.13 178.206 196.826 165.949 192.161 162.741C189.52 160.751 186.441 159.422 183.182 158.864C179.923 158.306 176.577 158.535 173.424 159.533Z" fill="white" stroke="#263238" stroke-width="0.43541" stroke-linecap="round" stroke-linejoin="round"/>
<path d="M208.432 210.889L200.853 199.795" stroke="#263238" stroke-width="0.43541" stroke-linecap="round" stroke-linejoin="round"/>
<path d="M207.205 209.303L193.849 202.721" stroke="#263238" stroke-width="0.43541" stroke-linecap="round" stroke-linejoin="round"/>
<path d="M167.622 292.981L179.278 375.828C179.305 376.02 179.371 376.204 179.473 376.369C179.576 376.534 179.711 376.675 179.871 376.785C180.031 376.894 180.212 376.969 180.403 377.005C180.593 377.04 180.789 377.035 180.978 376.991C181.305 376.91 181.593 376.715 181.79 376.441C181.987 376.167 182.079 375.832 182.051 375.496L173.833 291.613L167.622 292.981Z" fill="#263238" stroke="#263238" stroke-width="0.43541" stroke-linecap="round" stroke-linejoin="round"/>
<path d="M134.135 293.635L114.657 374.999C114.612 375.188 114.608 375.384 114.643 375.574C114.679 375.765 114.754 375.946 114.863 376.106C114.972 376.266 115.114 376.401 115.279 376.503C115.444 376.606 115.628 376.672 115.82 376.699C116.153 376.749 116.493 376.675 116.776 376.491C117.058 376.307 117.264 376.027 117.354 375.702L139.976 296.741L134.135 293.635Z" fill="#263238" stroke="#263238" stroke-width="0.43541" stroke-linecap="round" stroke-linejoin="round"/>
<path d="M169.513 292.619L157.116 375.351C157.087 375.542 157.098 375.736 157.148 375.923C157.197 376.109 157.285 376.283 157.405 376.434C157.525 376.585 157.674 376.71 157.844 376.801C158.015 376.891 158.202 376.946 158.394 376.961C158.73 376.98 159.061 376.876 159.327 376.67C159.592 376.463 159.774 376.167 159.838 375.837L175.572 295.214L169.513 292.619Z" fill="#263238" stroke="#263238" stroke-width="0.43541" stroke-linecap="round" stroke-linejoin="round"/>
<path d="M213.404 292.979L225.06 375.826C225.087 376.018 225.154 376.202 225.256 376.367C225.358 376.532 225.493 376.674 225.653 376.783C225.813 376.893 225.994 376.967 226.185 377.003C226.375 377.038 226.571 377.034 226.76 376.989C227.088 376.908 227.376 376.713 227.572 376.439C227.769 376.165 227.862 375.83 227.834 375.494L219.577 291.586L213.404 292.979Z" fill="#263238" stroke="#263238" stroke-width="0.43541" stroke-linecap="round" stroke-linejoin="round"/>
<path d="M115.692 207.001L129.879 299.242H230.773C230.773 299.242 232.268 272.658 227.82 263.264C223.372 253.869 168.452 274.012 166.471 273.488C165.001 273.118 167.174 225.495 169.871 206.886C170.06 205.576 169.964 204.241 169.592 202.971C169.219 201.701 168.577 200.526 167.711 199.526C166.844 198.526 165.772 197.724 164.568 197.175C163.364 196.625 162.056 196.341 160.732 196.342H124.817C123.484 196.34 122.166 196.628 120.954 197.185C119.742 197.742 118.665 198.555 117.798 199.568C116.931 200.582 116.293 201.771 115.93 203.054C115.566 204.337 115.485 205.684 115.692 207.001Z" fill="#92E3A9" stroke="#263238" stroke-width="0.43541" stroke-linecap="round" stroke-linejoin="round"/>
<path d="M227.821 263.264C223.373 253.87 168.452 274.013 166.471 273.489C165.001 273.118 167.174 225.496 169.871 206.887C170.107 205.594 170.055 204.264 169.718 202.993C169.382 201.722 168.769 200.541 167.925 199.534C167.08 198.527 166.024 197.718 164.831 197.165C163.638 196.612 162.338 196.329 161.024 196.336C159.709 196.343 158.412 196.639 157.225 197.204C156.038 197.769 154.99 198.588 154.156 199.604C153.321 200.62 152.721 201.807 152.398 203.081C152.074 204.356 152.035 205.685 152.284 206.976L166.471 299.217H230.773C230.773 299.217 232.268 272.658 227.821 263.264Z" fill="#263238" stroke="#263238" stroke-width="0.43541" stroke-linecap="round" stroke-linejoin="round"/>
<path d="M278.868 187.51C278.868 187.51 277.245 189.133 274.804 191.983L278.868 187.51Z" fill="white"/>
<path d="M278.868 187.51C278.868 187.51 277.245 189.133 274.804 191.983" stroke="#263238" stroke-width="0.43541" stroke-linecap="round" stroke-linejoin="round"/>
<path d="M278.613 190.809C278.613 190.809 276.632 194.835 275.417 196.662L278.613 190.809Z" fill="white"/>
<path d="M278.613 190.809C278.613 190.809 276.632 194.835 275.417 196.662" stroke="#263238" stroke-width="0.43541" stroke-linecap="round" stroke-linejoin="round"/>
<path d="M5.31608 237.437C7.43774 238.357 12.6141 238.242 12.6269 238.242C12.6396 238.242 11.5149 234.855 11.4127 234.651C10.2751 232.26 6.67087 228.337 3.74401 228.733C3.25949 228.812 2.79709 228.992 2.38702 229.262C1.97694 229.532 1.62843 229.885 1.36425 230.299C1.10007 230.713 0.926171 231.178 0.853919 231.663C0.781666 232.149 0.812683 232.644 0.944946 233.117C1.43063 235.136 3.50116 236.644 5.31608 237.437Z" fill="#263238"/>
<path d="M73.2478 219.785C70.3081 219.465 66.8572 223.491 65.7453 225.907C65.6558 226.111 64.5822 229.536 64.6333 229.536C64.071 230.163 63.483 230.815 62.8568 231.607C61.7065 233.013 60.4284 234.623 59.1375 236.464C57.7471 238.436 56.467 240.485 55.3032 242.599C53.9913 244.97 52.888 247.45 52.0056 250.012C52.0112 250.041 52.0112 250.072 52.0056 250.101C52.0056 249.245 52.0056 246.816 52.0056 246.638C51.6605 244.017 49.4494 239.161 46.5609 238.624C46.0797 238.546 45.5875 238.57 45.1162 238.694C44.6448 238.819 44.2047 239.04 43.8242 239.345C43.4436 239.649 43.1312 240.03 42.9069 240.463C42.6827 240.896 42.5516 241.371 42.5221 241.857C42.3431 243.941 43.8002 246.024 45.3211 247.328C46.9827 248.81 51.5839 250.242 51.9545 250.357C51.1188 253.014 50.4696 255.726 50.0118 258.473C49.7178 260.058 49.4878 261.655 49.2705 263.266C49.2705 262.512 49.2705 261.847 49.2705 261.758C48.9382 259.137 46.7143 254.281 43.8385 253.744C43.3535 253.668 42.858 253.695 42.3841 253.823C41.9102 253.951 41.4685 254.177 41.0877 254.487C40.7069 254.797 40.3954 255.183 40.1735 255.621C39.9516 256.059 39.8243 256.538 39.7997 257.029C39.6335 259.112 41.0778 261.195 42.6115 262.512C44.1453 263.828 47.9924 265.145 49.0021 265.464C48.9254 266.09 48.8359 266.742 48.7592 267.317C48.4141 270.283 48.0691 273.248 47.6473 276.136C47.4939 277.159 47.315 278.156 47.136 279.153C47.136 278.488 47.136 277.938 47.136 277.875C46.791 275.254 44.5798 270.398 41.6913 269.861C41.2062 269.787 40.7111 269.816 40.2379 269.945C39.7647 270.075 39.324 270.303 38.9444 270.614C38.5648 270.924 38.2548 271.312 38.0344 271.75C37.8141 272.188 37.6883 272.668 37.6653 273.158C37.4991 275.229 38.9434 277.312 40.4771 278.629C42.3855 279.89 44.4761 280.851 46.6759 281.479C46.4586 282.501 46.2414 283.511 45.9857 284.495C45.794 285.16 45.6662 285.773 45.4362 286.463C45.2061 287.154 45.0144 287.742 44.8099 288.406C44.3625 289.62 43.9152 290.886 43.4551 292.062C43.1356 292.892 42.816 293.672 42.5093 294.452C42.6627 293.442 42.9311 291.448 42.9439 291.282C42.9078 288.96 42.2787 286.685 41.1162 284.674C41.1478 284.419 41.1478 284.162 41.1162 283.907C41.0582 283.415 40.8962 282.941 40.6408 282.517C40.3855 282.092 40.0427 281.727 39.6352 281.445C39.2277 281.164 38.765 280.972 38.2776 280.883C37.7903 280.794 37.2897 280.81 36.8089 280.929C33.946 281.683 32.1438 286.694 32.0032 289.326C32.0032 289.48 32.1055 291.18 32.1822 292.253C32.0416 291.627 31.901 290.975 31.7476 290.387C31.4537 289.109 31.1086 287.831 30.7635 286.553C30.559 285.901 30.3673 285.275 30.1628 284.597C29.9583 283.92 29.7026 283.319 29.4726 282.604C28.9102 281.057 28.2712 279.523 27.581 277.99C28.6802 277.721 32.5912 276.711 34.1632 275.523C35.7353 274.334 37.3841 272.353 37.3713 270.27C37.3865 269.774 37.2956 269.28 37.1047 268.822C36.9139 268.363 36.6274 267.951 36.2645 267.612C35.9015 267.273 35.4705 267.016 35.0001 266.857C34.5298 266.698 34.031 266.642 33.537 266.691C30.5973 267.011 28.0411 271.688 27.5171 274.27C27.5171 274.436 27.2998 276.328 27.2231 277.376C26.8141 276.456 26.3923 275.536 25.945 274.615C24.6669 271.982 23.2099 269.337 21.8167 266.704L20.5386 264.275C20.9348 264.186 25.651 263.112 27.3637 261.719C29.0764 260.326 30.5845 258.562 30.5718 256.466C30.5849 255.971 30.4926 255.478 30.301 255.021C30.1094 254.563 29.8229 254.152 29.4605 253.813C29.098 253.475 28.6678 253.218 28.1984 253.058C27.729 252.898 27.231 252.84 26.7374 252.888C23.7978 253.207 21.2543 257.885 20.7175 260.467C20.7175 260.671 20.4236 263.394 20.398 264.097C19.4778 262.32 18.5703 260.531 17.7523 258.741C16.6294 256.323 15.6645 253.834 14.8638 251.29C15.0427 251.29 19.9762 250.14 21.74 248.734C23.2993 247.532 24.9609 245.564 24.9353 243.481C24.9505 242.984 24.8596 242.491 24.6687 242.032C24.4779 241.574 24.1914 241.162 23.8285 240.823C23.4655 240.484 23.0345 240.227 22.5642 240.068C22.0938 239.909 21.595 239.853 21.101 239.902C18.1613 240.221 15.6179 244.899 15.0811 247.481C15.0811 247.686 14.7743 250.625 14.7616 251.162C14.7616 251.009 14.6593 250.868 14.6082 250.715C13.8818 248.143 13.3814 245.513 13.1128 242.854C12.9594 241.385 12.8827 239.979 12.8316 238.598C13.7646 238.483 17.944 237.921 19.7717 236.86C21.5994 235.799 23.3249 234.061 23.6061 231.99C23.6726 231.504 23.6361 231.009 23.4991 230.538C23.362 230.067 23.1274 229.629 22.8104 229.255C22.4934 228.88 22.1012 228.576 21.6592 228.362C21.2172 228.149 20.7353 228.031 20.2446 228.016C17.2794 228.016 14.2375 232.387 13.4195 234.892C13.4195 235.032 13.0872 236.464 12.8827 237.512C12.8827 236.898 12.8827 236.234 12.8827 235.659C12.8827 233.422 13.0233 231.377 13.1639 229.575C13.2534 228.54 13.3556 227.607 13.4579 226.737C14.3142 226.15 17.7268 223.747 18.7748 222.021C19.8229 220.296 20.6409 217.906 19.874 215.963C19.7093 215.502 19.4494 215.08 19.111 214.726C18.7727 214.372 18.3635 214.093 17.9102 213.907C17.4569 213.721 16.9695 213.633 16.4799 213.648C15.9903 213.663 15.5093 213.781 15.0683 213.995C12.4354 215.35 11.7452 220.628 12.1798 223.235C12.1798 223.453 13.215 226.904 13.2534 226.878C13.1384 227.709 13.0233 228.603 12.9211 229.588C12.7422 231.403 12.5632 233.422 12.4993 235.697C12.4223 238.11 12.482 240.525 12.6782 242.931C12.8665 245.631 13.2942 248.308 13.9564 250.932C13.9619 250.962 13.9619 250.992 13.9564 251.022C13.4962 250.293 12.1287 248.299 12.0008 248.159C10.2754 246.165 5.76368 243.314 3.05409 244.478C2.60733 244.68 2.20831 244.975 1.88307 245.342C1.55783 245.709 1.31367 246.141 1.16653 246.609C1.01939 247.077 0.97257 247.57 1.02913 248.058C1.0857 248.545 1.24437 249.015 1.4948 249.437C2.5045 251.264 4.90735 252.172 6.86285 252.453C9.0612 252.773 13.688 251.43 14.0586 251.328C14.8188 253.978 15.7539 256.574 16.8577 259.099C17.4967 260.569 18.1358 262.039 18.8898 263.496C18.4681 262.87 18.0846 262.32 18.0335 262.218C16.3081 260.224 11.7964 257.374 9.08676 258.537C8.64755 258.761 8.26073 259.075 7.9518 259.459C7.64287 259.843 7.41884 260.288 7.29446 260.765C7.17008 261.242 7.14818 261.74 7.2302 262.226C7.31222 262.712 7.4963 263.176 7.77031 263.585C8.76723 265.413 11.1829 266.32 13.1256 266.602C15.0683 266.883 19.0688 265.835 20.1168 265.528C20.398 266.09 20.6664 266.653 20.9476 267.202C22.2257 269.874 23.6444 272.532 24.8842 275.178C25.3187 276.111 25.7149 277.044 26.1623 277.977L25.4082 276.903C23.6828 274.909 19.171 272.072 16.4614 273.222C16.0154 273.427 15.6174 273.724 15.2934 274.093C14.9694 274.462 14.7266 274.895 14.5808 275.364C14.435 275.833 14.3894 276.327 14.4469 276.814C14.5045 277.302 14.6639 277.772 14.9149 278.194C15.9246 280.022 18.3275 280.929 20.2702 281.21C22.5799 281.22 24.8773 280.875 27.0825 280.188C27.466 281.159 27.8494 282.131 28.1689 283.076C28.3862 283.741 28.629 284.355 28.7952 285.032C28.9613 285.709 29.1658 286.31 29.3448 287C29.6515 288.278 29.971 289.556 30.2395 290.835C30.4312 291.691 30.5973 292.522 30.7635 293.391C30.3289 292.458 29.4854 290.643 29.3703 290.502C27.9644 288.266 23.9384 284.776 21.0754 285.505C20.6043 285.641 20.167 285.874 19.7918 286.19C19.4167 286.506 19.112 286.897 18.8975 287.338C18.683 287.779 18.5636 288.26 18.5469 288.75C18.5301 289.24 18.6165 289.728 18.8004 290.183C19.5161 292.138 21.7528 293.404 23.6316 294.017C25.7149 294.643 30.3034 294.017 30.8785 294.017C31.1597 295.385 31.4025 296.727 31.6326 297.992C32.3995 302.376 32.9107 306.07 33.1791 308.639C33.1791 309.099 33.2813 309.508 33.3197 309.917H24.3729L27.6193 373.273H42.7777L46.0241 309.917H37.7292L37.9209 309.546C39.0584 307.169 40.6305 303.769 42.3304 299.602C42.8799 298.324 43.4295 296.88 43.9791 295.423C44.5415 295.538 49.0915 296.458 51.2004 295.973C53.1304 295.538 55.4565 294.452 56.3129 292.56C56.5314 292.12 56.6547 291.639 56.6746 291.149C56.6945 290.658 56.6107 290.169 56.4285 289.713C56.2463 289.257 55.97 288.844 55.6175 288.502C55.265 288.161 54.8443 287.897 54.3829 287.729C51.5839 286.783 47.315 289.965 45.7429 292.087C45.6534 292.215 44.7971 293.685 44.2731 294.643L44.9505 292.854C45.3978 291.64 45.8068 290.4 46.2286 289.084L46.8037 287.128C47.021 286.476 47.1616 285.773 47.3405 285.083C47.7112 283.485 48.0179 281.849 48.2991 280.188C49.3599 280.571 53.1815 281.901 55.1498 281.76C57.1181 281.619 59.5848 280.904 60.7223 279.204C61.0107 278.8 61.21 278.34 61.3072 277.854C61.4044 277.367 61.3971 276.866 61.286 276.383C61.1748 275.899 60.9622 275.445 60.6624 275.05C60.3625 274.655 59.9821 274.328 59.5465 274.091C56.9903 272.813 52.2101 275.242 50.3441 277.095C50.2291 277.223 49.066 278.705 48.4014 279.536C48.5547 278.539 48.7081 277.542 48.8359 276.52C49.2066 273.593 49.475 270.615 49.7689 267.65C49.8584 266.742 49.9607 265.835 50.0501 264.927C50.4336 265.068 54.9325 266.742 57.1436 266.589C59.0991 266.448 61.5659 265.733 62.7034 264.033C62.9917 263.629 63.1911 263.169 63.2883 262.683C63.3854 262.196 63.3782 261.695 63.267 261.212C63.1559 260.728 62.9433 260.274 62.6434 259.879C62.3436 259.484 61.9632 259.157 61.5275 258.92C58.9713 257.578 54.204 260.071 52.3252 261.924C52.1846 262.064 50.4719 264.212 50.0629 264.774C50.2802 262.78 50.5102 260.799 50.817 258.844C51.2105 256.21 51.7784 253.605 52.5169 251.047C52.6958 251.047 57.3737 252.875 59.6487 252.721C61.6042 252.581 64.071 251.852 65.2085 250.165C65.4989 249.762 65.6999 249.302 65.7982 248.815C65.8965 248.329 65.8898 247.827 65.7785 247.343C65.6672 246.859 65.4539 246.404 65.1528 246.009C64.8517 245.614 64.4698 245.288 64.0326 245.053C61.4764 243.698 56.7091 246.19 54.8302 248.056C54.6897 248.197 52.8492 250.51 52.5424 250.945L52.6575 250.497C53.469 247.949 54.504 245.477 55.7505 243.11C56.4279 241.832 57.1436 240.554 57.8594 239.403C58.7029 239.825 62.5628 241.704 64.6078 241.781C66.6528 241.857 69.1067 241.41 70.436 239.8C70.7518 239.433 70.9878 239.004 71.1289 238.54C71.2699 238.077 71.313 237.589 71.2553 237.108C71.1976 236.627 71.0404 236.164 70.7937 235.747C70.547 235.33 70.2162 234.969 69.8225 234.687C67.3557 233.051 62.4094 235.007 60.3517 236.656C60.2366 236.745 59.1886 237.78 58.4473 238.547C58.7796 238.023 59.1119 237.474 59.4442 236.988C60.7223 235.122 61.9238 233.499 63.0485 232.054C63.6875 231.249 64.3266 230.533 64.8506 229.869C65.8859 229.869 70.0653 229.715 71.893 228.859C73.7207 228.003 75.7273 226.456 76.1491 224.424C76.3258 223.928 76.3881 223.399 76.3313 222.876C76.2744 222.352 76.0999 221.849 75.8209 221.402C75.5418 220.956 75.1653 220.579 74.7197 220.299C74.2741 220.018 73.7709 219.843 73.2478 219.785ZM40.7199 298.708C38.9434 302.798 37.3074 306.134 36.1443 308.447L35.4925 309.725H35.3008C35.3008 309.278 35.1729 308.779 35.0963 308.23C34.7384 305.673 34.176 301.916 33.2941 297.506C33.0257 296.113 32.7062 294.631 32.3611 293.11C33.7425 292.552 35.0909 291.916 36.3999 291.205C38.178 292.749 40.1608 294.039 42.292 295.04C41.768 296.279 41.2312 297.532 40.7199 298.708Z" fill="#263238"/>
<path d="M57.7701 238.573C57.7701 238.573 58.7159 235.135 58.7415 234.905C59.1121 232.285 58.2813 227.032 55.6101 225.741C55.1662 225.542 54.6859 225.438 54.1996 225.436C53.7134 225.433 53.2319 225.531 52.7858 225.725C52.3398 225.919 51.9389 226.203 51.6088 226.56C51.2786 226.917 51.0265 227.339 50.8683 227.799C50.1526 229.754 51.06 232.157 52.1464 233.819C53.4245 235.812 57.7701 238.573 57.7701 238.573Z" fill="#263238"/>
<path d="M539.016 372.963H19.145V379.328H539.016V372.963Z" fill="#263238"/>
</g>
</svg>
